<svg width="44" height="28" fill="none" xmlns="http://www.w3.org/2000/svg"><path d="M41.654 0H2.346C1.051 0 0 1.065 0 2.378v23.244C0 26.936 1.05 28 2.346 28h39.308C42.949 28 44 26.935 44 25.622V2.378C44 1.064 42.95 0 41.654 0zM17.552 19.976c-.044 1.44-1.284 2.703-2.71 2.739-1.442.004-2.885 0-4.328.001v-6.085c1.071.2 2.149.413 3.245.349 1.051-.056 2.32-.219 2.921-1.216.446-.736.246-1.614.283-2.429l-.013-2.082-2.438.014c-.012 1.211.024 2.425-.02 3.635-.093.804-.943 1.218-1.672 1.143-.844-.008-1.595-.327-2.308-.54 0 0-.016-5.32.002-7.77.238-1.433 1.684-2.504 3.101-2.374h3.949c-.005 4.872-.004 9.743-.012 14.614zm7.97.06c-.093 1.52-1.54 2.797-3.041 2.652h-4.01v-6.66c1.046.837 2.458.962 3.746.946.848-.023 1.689-.15 2.506-.378l-.018-1.208c-1.152.562-2.58.96-3.782.32-.955-.554-1.067-1.948-.557-2.845.63-.931 1.904-.959 2.895-.762.487.044 1.14.485 1.462.475v-1.105c-1.663-.426-3.445-.564-5.111-.082-.414.144-.82.347-1.14.653.008-1.37-.02-2.741.014-4.11.099-1.304 1.18-2.402 2.452-2.562 1.28-.042 2.562-.006 3.843-.018h.745c-.003 4.894.007 9.79-.005 14.684zm5.286 2.557c-1.49.012-2.981.002-4.472.005v-5.882h4.44c.827.032 1.833-.504 1.813-1.448.015-.875-.875-1.374-1.638-1.435.61-.072 1.232-.506 1.29-1.168.142-.864-.687-1.481-1.465-1.5-1.48-.025-2.96-.004-4.44-.011v-2.9c-.1-1.506 1.157-2.905 2.635-2.996 1.47-.02 2.941-.003 4.412-.008v14.44c.073 1.463-1.158 2.774-2.575 2.903zm-1.43-8.265s.803-.047.803.76c0 .806-.8.759-.804.759h-1.63v-1.52h1.63zm-1.63-.83v-1.415h1.523s.714 0 .714.706-.714.708-.714.708h-1.524z" fill="currentColor"/></svg>