<svg width="48" height="29" fill="none" xmlns="http://www.w3.org/2000/svg"><path fill-rule="evenodd" clip-rule="evenodd" d="M23.829 24.835a14.195 14.195 0 0 0 4.693-10.56c0-4.19-1.815-7.962-4.693-10.587A14.132 14.132 0 0 0 14.275 0C6.397 0 0 6.397 0 14.275s6.397 14.247 14.275 14.247c3.687 0 7.04-1.396 9.554-3.687z" fill="#606060"/><path fill-rule="evenodd" clip-rule="evenodd" d="M23.83 24.835a14.195 14.195 0 0 0 4.692-10.56c0-4.19-1.815-7.962-4.693-10.587v21.147z" fill="#606060"/><path fill-rule="evenodd" clip-rule="evenodd" d="M33.411 0c-3.688 0-7.04 1.397-9.582 3.688a18.19 18.19 0 0 0-1.425 1.508h2.877c.392.475.755 1.005 1.09 1.508h-5.056c-.3.491-.58.994-.838 1.509h6.704c.223.503.447 1.005.615 1.508H19.89c-.17.504-.31 1.017-.42 1.537h8.745c.203.992.305 2.003.306 3.017a14.36 14.36 0 0 1-.726 4.525H19.89c.171.512.367 1.015.586 1.509h6.705c-.252.503-.503 1.033-.81 1.508h-5.056a14.78 14.78 0 0 0 1.089 1.508h2.877a14.712 14.712 0 0 1-1.452 1.509 14.257 14.257 0 0 0 9.582 3.687c7.877 0 14.247-6.37 14.247-14.247S41.288 0 33.41 0z" fill="#535353"/><path fill-rule="evenodd" clip-rule="evenodd" d="M42.741 17.348c0-.251.224-.447.475-.447s.447.196.447.447-.196.475-.447.475a.49.49 0 0 1-.475-.475zm.476.363c.195 0 .335-.168.335-.363a.323.323 0 0 0-.335-.335c-.196 0-.364.14-.364.335a.37.37 0 0 0 .364.363zm-.057-.168h-.111v-.39h.167c.056 0 .084 0 .112.027.028.028.055.056.055.084 0 .056-.027.112-.083.112l.083.167h-.111l-.056-.14h-.056v.14zm0-.223h.112v-.084h-.112v.084zm-30.673.503H10.7l1.062-5.56-2.43 5.56H7.71l-.28-5.532-1.06 5.532H4.748l1.369-7.236H8.91l.14 4.47 1.956-4.47h2.877l-1.397 7.236zm19.834-.084c-.503.14-.866.195-1.285.195-.894 0-1.397-.446-1.397-1.285 0-.167.028-.335.056-.53l.112-.587.084-.447.81-4.498h1.76l-.252 1.341h.922l-.251 1.425h-.923l-.447 2.459c-.027.11-.055.195-.055.251 0 .307.195.447.614.447.196 0 .363-.028.475-.056l-.223 1.285zM37.49 11.984c-.14-.056-.167-.056-.195-.056-.084-.028-.14-.028-.14-.055h-.196c-.586 0-1.005.251-1.536.95l.167-.895h-1.62l-1.089 5.895h1.788c.642-3.604.894-4.246 1.76-4.246.055 0 .14.028.224.028l.195.056.642-1.677zM25.282 13.8c0 .726.42 1.257 1.37 1.62.726.307.837.392.837.671 0 .363-.335.53-1.033.53-.531 0-1.034-.083-1.62-.251l-.224 1.369h.084l.307.084c.112 0 .28.028.475.028.419.056.754.056 1.006.056 1.871 0 2.765-.615 2.765-1.956 0-.81-.363-1.285-1.285-1.648-.755-.28-.838-.363-.838-.642 0-.308.307-.475.894-.475.335 0 .838.028 1.285.084l.251-1.341c-.474-.084-1.173-.112-1.564-.112-2.011 0-2.71.894-2.71 1.983zm-7.04 4.023H16.79l.028-.615c-.447.475-1.062.699-1.872.699-.95 0-1.62-.643-1.62-1.593 0-1.424 1.146-2.263 3.13-2.263.195 0 .446 0 .726.028.055-.195.055-.28.055-.363 0-.39-.307-.53-1.145-.53-.503 0-1.061.055-1.452.14l-.252.083-.168.028.252-1.313c.894-.224 1.452-.307 2.123-.307 1.536 0 2.319.586 2.319 1.704 0 .307-.028.53-.14 1.173l-.363 2.095-.056.363-.056.308-.027.195-.03.168zm-1.284-2.626c-.196-.028-.28-.028-.391-.028-1.006 0-1.509.307-1.509.894 0 .363.224.614.615.614.726 0 1.257-.614 1.285-1.48zm7.123 2.486a6.77 6.77 0 0 1-1.815.251c-1.984 0-3.017-.921-3.017-2.653 0-2.012 1.312-3.492 3.1-3.492 1.453 0 2.375.838 2.375 2.123 0 .447-.056.866-.195 1.453H20.98v.195c0 .67.503 1.034 1.537 1.034.633.004 1.26-.12 1.843-.363l-.279 1.452zm-.95-3.492v-.307c0-.475-.307-.755-.838-.755-.558 0-.95.391-1.117 1.062h1.955zm19.891.95c-.28 1.956-1.649 2.821-3.464 2.821-1.983 0-2.794-1.2-2.794-2.71 0-2.067 1.369-3.492 3.492-3.492 1.844 0 2.822 1.174 2.822 2.654 0 .364 0 .392-.056.727zm-1.844-.754c0-.615-.252-1.174-.978-1.174-.894 0-1.453 1.062-1.453 2.012 0 .782.391 1.313 1.006 1.313.39 0 1.229-.53 1.368-1.425.057-.223.057-.475.057-.726z" fill="currentColor"/></svg>