<svg width="49" height="28" fill="none" xmlns="http://www.w3.org/2000/svg"><path d="M14.555 27.787c7.67 0 13.89-6.227 13.89-13.897S22.225 0 14.555 0C6.879 0 .658 6.22.658 13.89c0 7.67 6.221 13.897 13.897 13.897z" fill="#535353"/><path d="M34.768 27.787c7.67 0 13.89-6.227 13.89-13.897S42.438 0 34.768 0c-7.676 0-13.89 6.22-13.89 13.89 0 7.67 6.214 13.897 13.89 13.897z" fill="#535353"/><path d="M24.652 23.422a13.887 13.887 0 0 1-3.775-9.532c0-3.647 1.411-6.97 3.705-9.448l.292.152a13.86 13.86 0 0 1 3.571 9.296c0 3.59-1.366 6.857-3.596 9.328l-.197.204z" fill="#606060"/><path d="M3.384 10.408h1.214l1.557 3.883 1.391-3.883H8.83v5.173h-.998v-3.838L6.498 15.58h-.756l-1.335-3.787v3.787H3.384v-5.173zM13.938 15.58v-3.958h-.851v3.959h.851zM19.632 15.58v-5.102h-.896v5.103h.896z" fill="#1F1F1F"/><path d="M18.221 11.622v.947h1.995v-.947h-1.995zM38.447 15.58v-3.958h-.852v3.959h.852zM46.136 15.58v-4.95h-.852v4.95h.852zM26.85 11.622h-.883v3.959h.896v-2.618c.21-.426.839-.515.94-.515v-.852c-.21 0-.927.16-.953.547v-.521zM40.391 11.622h-.89v3.959h.903v-2.618c.203-.426.839-.515.934-.515v-.852c-.203 0-.921.16-.947.547v-.521zM16.607 12.753h.87c0-.693-.444-1.118-1.175-1.118-.73 0-1.309.38-1.309 1.232s.896.973 1.042 1.01c.178.051.668.109.668.649 0 .203-.242.254-.452.254-.203 0-.413-.159-.413-.394h-.972c0 .89.693 1.246 1.385 1.246.693 0 1.354-.56 1.354-1.233 0-.661-.648-1.049-1.157-1.125-.768-.108-.692-.775-.247-.775.419 0 .394.184.406.254zM32.563 14.164c-.318.4-.807.654-1.354.654a1.717 1.717 0 0 1-1.722-1.71 1.72 1.72 0 0 1 1.722-1.721c.54 0 1.03.248 1.341.641h1.118a2.657 2.657 0 0 0-2.459-1.62 2.698 2.698 0 1 0 0 5.395c1.106 0 2.06-.686 2.479-1.64h-1.125z" fill="#1F1F1F"/><path d="M44.09 15.676a2.068 2.068 0 0 0 2.065-2.059 2.065 2.065 0 0 0-2.066-2.065v.877a1.19 1.19 0 0 1 1.189 1.188A1.19 1.19 0 0 1 44.09 14.8v.877zm0 0v-.877a1.19 1.19 0 0 1-1.189-1.182 1.19 1.19 0 0 1 1.188-1.188v-.877a2.065 2.065 0 0 0-2.065 2.065c0 1.131.928 2.059 2.066 2.059zM36.4 15.676a2.061 2.061 0 1 0 0-4.124v.877a1.19 1.19 0 0 1 1.189 1.188A1.19 1.19 0 0 1 36.4 14.8v.877zm0-4.124a2.065 2.065 0 0 0-2.065 2.065c0 1.131.928 2.059 2.066 2.059v-.877a1.19 1.19 0 0 1-1.189-1.182 1.19 1.19 0 0 1 1.189-1.188v-.877zM22.955 14.024h2.015a1.66 1.66 0 0 0 .012-.178v-.172c-.031-.921-.61-2.052-2.027-2.065v.96c.483 0 .96.222.96.66h-.96v.795zm0 1.665c.8-.013 1.926-.534 1.926-1.201h-1.074c0 .159-.413.305-.852.298v.903zm-.985-1.665h.985v-.795h-.96c0-.438.477-.66.96-.66v-.96h-.025c-1.284 0-1.983 1.068-1.99 2.11v.038c.02.985.649 1.932 1.977 1.932h.038v-.903c-.483-.006-.985-.203-.985-.762zM11.9 15.676a2.068 2.068 0 0 0 2.064-2.059 2.065 2.065 0 0 0-2.065-2.065v.877a1.19 1.19 0 0 1 1.188 1.188A1.19 1.19 0 0 1 11.9 14.8v.877zm0 0v-.877a1.19 1.19 0 0 1-1.19-1.182 1.19 1.19 0 0 1 1.19-1.188v-.877a2.061 2.061 0 1 0 0 4.124z" fill="currentColor"/></svg>