<svg width="69" height="18" fill="none" xmlns="http://www.w3.org/2000/svg"><path fill-rule="evenodd" clip-rule="evenodd" d="M6.946.003C7.554 0 9.36-.158 10.124 2.346c.515 1.688 1.336 4.451 2.462 8.292h.458c1.208-4.049 2.038-6.813 2.49-8.292.772-2.53 2.704-2.343 3.476-2.343h5.962V18h-6.076V7.394h-.408L15.101 18H10.53L7.142 7.386h-.407V18H.658V.003h6.288zm26.752 0v10.614h.485l4.12-8.728A3.26 3.26 0 0 1 40.807.003h5.88V18h-6.203V7.386H40l-4.039 8.728C35.16 17.843 33.375 18 33.375 18h-5.88V.003h6.203zm34.431 8.552c-.865 2.38-3.583 4.084-6.591 4.084h-6.506V18h-5.899V8.555H68.13zM61.822.003H48.824c.31 4.007 3.865 7.437 7.546 7.437h12.169C69.24 4.11 66.824.003 61.822.003z" fill="currentColor"/></svg>