<svg width="62" height="20" fill="none" xmlns="http://www.w3.org/2000/svg"><path d="M40.383 0c-4.402 0-8.336 2.272-8.336 6.469 0 4.813 6.977 5.146 6.977 7.564 0 1.018-1.172 1.93-3.174 1.93-2.84 0-4.964-1.274-4.964-1.274l-.908 4.235S32.423 20 35.67 20c4.813 0 8.6-2.383 8.6-6.652 0-5.086-7.006-5.409-7.006-7.653 0-.798.962-1.672 2.958-1.672 2.252 0 4.09.926 4.09.926l.889-4.09s-2-.859-4.82-.859zM.107.309 0 .926s1.852.338 3.52 1.01c2.148.773 2.3 1.222 2.663 2.618l3.941 15.128h5.284L23.548.309h-5.272l-5.23 13.171-2.134-11.165C10.716 1.038 9.723.31 8.51.31H.107zm25.56 0-4.135 19.373h5.027L30.68.309h-5.012zm28.038 0c-1.212 0-1.855.646-2.326 1.775l-7.365 17.598h5.272l1.02-2.933h6.422l.62 2.933H62L57.942.309h-4.237zm.686 5.234 1.562 7.27h-4.186l2.623-7.27z" fill="#606060"/></svg>