<svg width="270" height="22" fill="none" xmlns="http://www.w3.org/2000/svg"><path d="M16.313 15h.897V6.667h5.174V15h.897V5.861h-6.968V15zm8.481.052c1.677-.13 2.418-1.521 2.418-4.615V9.228h2.262V15h.884V8.461h-4.004v1.976c0 2.418-.468 3.653-1.56 3.822v.793zm7.245-3.354c0 1.976 1.534 3.458 3.445 3.458 1.91 0 3.458-1.482 3.458-3.458 0-1.937-1.547-3.393-3.458-3.393-1.911 0-3.445 1.456-3.445 3.393zm.91 0c0-1.482 1.13-2.6 2.535-2.6 1.404 0 2.548 1.118 2.548 2.6 0 1.534-1.144 2.652-2.548 2.652-1.404 0-2.535-1.118-2.535-2.652zM40.593 15h8.268v1.56h.832v-2.34h-.923V8.461h-.858v5.759h-2.795V8.461h-.858v5.759h-2.808V8.461h-.858V15zm9.965-1.755c0 1.261 1.105 1.911 2.21 1.911 1.053 0 1.872-.676 2.21-1.469h.026s-.039.221-.039.546V15h.845v-4.186c0-1.638-.87-2.509-2.444-2.509-.87 0-1.794.299-2.314.741l.403.676a3.195 3.195 0 0 1 1.86-.624c.922 0 1.611.429 1.611 1.69v.182h-.39c-1.248 0-3.978.13-3.978 2.275zm.897-.078c0-1.456 2.08-1.495 3.094-1.495h.377v.299c0 1.144-.74 2.444-2.002 2.444-.975 0-1.469-.637-1.469-1.248zm7.236 1.079c.975-1.469 1.066-3.666 1.066-4.641v-.39h2.288v5.031h-3.354zm-1.755 0v2.314h.845V15h5.226v1.56h.845v-2.314h-.923V8.461h-4.043v1.066c0 .884-.039 3.276-1.144 4.719h-.806zm8.35.754h2.274c1.573 0 2.314-.819 2.314-2.002 0-1.547-1.118-2.041-2.288-2.041H66.17V8.461h-.884V15zm.883-.702v-2.639h1.326c1.027 0 1.47.533 1.47 1.326 0 .78-.43 1.313-1.483 1.313H66.17zm5.106-4.797h1.014v-1.04h-1.014v1.04zm0 5.499h1.014v-1.04h-1.014V15z" fill="#000"/><path d="M77.47 15h1.067v-1.079H77.47V15zm2.997 0h1.066v-1.079h-1.066V15zm2.996 0h1.066v-1.079h-1.066V15zm2.996 0h1.066v-1.079H86.46V15zm2.996 0h1.066v-1.079h-1.066V15zm2.996 0h1.066v-1.079h-1.066V15zm2.996 0h1.066v-1.079h-1.066V15zm2.996 0h1.066v-1.079h-1.066V15zm2.997 0h1.066v-1.079h-1.066V15zm2.996 0h1.066v-1.079h-1.066V15zm2.996 0h1.066v-1.079h-1.066V15zm2.996 0h1.066v-1.079h-1.066V15zm2.996 0h1.066v-1.079h-1.066V15zm2.996 0h1.066v-1.079h-1.066V15zm2.996 0h1.066v-1.079h-1.066V15zm2.996 0h1.066v-1.079h-1.066V15zm2.996 0h1.066v-1.079h-1.066V15zm2.996 0h1.066v-1.079h-1.066V15zm2.996 0h1.066v-1.079H131.4V15zm2.997 0h1.066v-1.079h-1.066V15zm2.996 0h1.066v-1.079h-1.066V15zm2.996 0h1.066v-1.079h-1.066V15zm2.996 0h1.066v-1.079h-1.066V15zm2.996 0h1.066v-1.079h-1.066V15zm2.996 0h1.066v-1.079h-1.066V15zm2.996 0h1.066v-1.079h-1.066V15zm2.996 0h1.066v-1.079h-1.066V15zm2.996 0h1.066v-1.079h-1.066V15zm2.996 0h1.066v-1.079h-1.066V15zm2.997 0h1.066v-1.079h-1.066V15zm2.996 0h1.066v-1.079h-1.066V15zm2.996 0h1.066v-1.079h-1.066V15zm2.996 0h1.066v-1.079h-1.066V15zm2.996 0h1.066v-1.079h-1.066V15zm2.996 0h1.066v-1.079h-1.066V15zm2.996 0h1.066v-1.079h-1.066V15zm2.996 0h1.066v-1.079h-1.066V15zm2.996 0h1.066v-1.079h-1.066V15zm2.996 0h1.066v-1.079h-1.066V15zm2.996 0h1.066v-1.079h-1.066V15zm2.997 0h1.066v-1.079h-1.066V15zm2.996 0h1.066v-1.079h-1.066V15zm2.996 0h1.066v-1.079h-1.066V15zm2.996 0h1.066v-1.079h-1.066V15zm2.996 0h1.066v-1.079h-1.066V15zm2.996 0h1.066v-1.079h-1.066V15zm2.996 0h1.066v-1.079h-1.066V15zm2.996 0h1.066v-1.079h-1.066V15zm2.996 0h1.066v-1.079h-1.066V15zm2.996 0h1.066v-1.079h-1.066V15zm2.996 0h1.066v-1.079h-1.066V15zm2.997 0h1.066v-1.079h-1.066V15zm2.996 0h1.066v-1.079h-1.066V15zm2.996 0h1.066v-1.079h-1.066V15z" fill="#D1D1D1"/><rect x=".5" y="6.5" width="8" height="8" rx=".5" stroke="#FF7A1B"/></svg>