<svg width="150" height="16" fill="none" xmlns="http://www.w3.org/2000/svg"><g clip-path="url(#a)"><path d="M4.527 11.387a1.161 1.161 0 0 1-1.643 0L.34 8.843a1.161 1.161 0 0 1 1.642-1.642l1.516 1.516c.115.114.3.114.415 0l4.105-4.105A1.161 1.161 0 0 1 9.66 6.254l-5.133 5.133z" fill="#FFD634"/></g><path d="M19.209 12h3.367c1.599 0 2.73-1.092 2.73-2.73 0-1.768-1.183-2.769-2.795-2.769h-2.015V3.94h4.134V2.822h-5.421V12zm1.287-1.118V7.619h1.846c1.014 0 1.664.637 1.664 1.651 0 1.001-.611 1.612-1.638 1.612h-1.872zm5.921-2.171c0 1.95 1.43 3.445 3.497 3.445.91 0 1.911-.351 2.548-.936l-.533-.923c-.52.468-1.235.767-1.937.767-1.183 0-2.197-.767-2.262-2.184h4.784c.026-.182.052-.364.052-.533 0-1.69-.988-3.081-2.847-3.081-1.872 0-3.302 1.352-3.302 3.445zm1.352-.741c.182-1.092.95-1.729 1.924-1.729.858 0 1.56.598 1.6 1.729h-3.524zm5.884.741c0 1.976 1.443 3.445 3.523 3.445 1.027 0 2.028-.416 2.626-1.053l-.507-.923c-.507.533-1.3.884-2.028.884-1.365 0-2.327-1.027-2.327-2.366 0-1.339.962-2.34 2.288-2.34.69 0 1.378.312 1.82.754l.598-.884c-.624-.663-1.599-.962-2.47-.962-2.067 0-3.523 1.495-3.523 3.445zM41.166 12h1.261V6.501h3.224V12h1.261V5.422h-5.746V12zm6.979.065c1.937-.104 2.69-1.638 2.69-4.615v-.988h1.938V12h1.26V5.422h-4.406V7.45c0 2.379-.52 3.341-1.482 3.484v1.131zm7.29-1.859c0 1.235 1.054 1.95 2.198 1.95.975 0 1.78-.585 2.158-1.339h.026s-.04.221-.04.52V12h1.184V7.84c0-1.664-.95-2.574-2.6-2.574-.923 0-1.924.338-2.457.78l.507.923c.533-.377 1.196-.637 1.846-.637.819 0 1.443.364 1.443 1.443v.13h-.338c-1.365 0-3.926.234-3.926 2.301zm1.262-.104c0-1.209 1.742-1.287 2.678-1.287h.325v.247c0 .975-.663 2.093-1.768 2.093-.82 0-1.235-.533-1.235-1.053zM64.322 12h1.248V6.501h2.3V5.422h-5.836v1.079h2.288V12zm4.787 0h1.26V9.179h3.329V12h1.26V5.422h-1.26V8.1H70.37V5.422h-1.261V12zm7.249-1.794c0 1.235 1.053 1.95 2.197 1.95.975 0 1.78-.585 2.158-1.339h.026s-.04.221-.04.52V12h1.184V7.84c0-1.664-.95-2.574-2.6-2.574-.923 0-1.924.338-2.457.78l.507.923c.533-.377 1.196-.637 1.846-.637.819 0 1.443.364 1.443 1.443v.13h-.338c-1.365 0-3.926.234-3.926 2.301zm1.26-.104c0-1.209 1.743-1.287 2.679-1.287h.325v.247c0 .975-.663 2.093-1.768 2.093-.82 0-1.235-.533-1.235-1.053zM83.085 12h1.39l1.612-2.379h1.106V12h1.26V5.422h-2.626c-1.39 0-2.352.715-2.352 2.067 0 1.001.675 1.703 1.43 1.911v.013s-.156.169-.3.403L83.085 12zM86.1 8.698c-.767 0-1.352-.403-1.352-1.222 0-.845.545-1.183 1.39-1.183h1.053v2.405H86.1zm8.836 2.262c.832-1.3.936-3.172.936-4.16v-.351h1.976v4.511h-2.912zm-2.106 0v2.6h1.183V12h4.875v1.56h1.157v-2.6h-.936V5.422h-4.446v1.209c0 1.014-.104 3.068-1.027 4.329h-.806zm8.032-2.262c0 2.002 1.586 3.458 3.549 3.458 1.95 0 3.536-1.456 3.536-3.458 0-1.989-1.586-3.432-3.549-3.432-1.95 0-3.536 1.443-3.536 3.432zm1.287 0c0-1.365 1.014-2.34 2.262-2.34 1.235 0 2.262.975 2.262 2.34 0 1.378-1.027 2.366-2.262 2.366-1.248 0-2.262-.988-2.262-2.366zm6.889.013c0 1.976 1.443 3.445 3.523 3.445 1.027 0 2.028-.416 2.626-1.053l-.507-.923c-.507.533-1.3.884-2.028.884-1.365 0-2.327-1.027-2.327-2.366 0-1.339.962-2.34 2.288-2.34.689 0 1.378.312 1.82.754l.598-.884c-.624-.663-1.599-.962-2.47-.962-2.067 0-3.523 1.495-3.523 3.445zM118.137 12h1.248V6.501h2.301V5.422h-5.837v1.079h2.288V12zm4.178-1.794c0 1.235 1.053 1.95 2.197 1.95.975 0 1.781-.585 2.158-1.339h.026s-.039.221-.039.52V12h1.183V7.84c0-1.664-.949-2.574-2.6-2.574-.923 0-1.924.338-2.457.78l.507.923c.533-.377 1.196-.637 1.846-.637.819 0 1.443.364 1.443 1.443v.13h-.338c-1.365 0-3.926.234-3.926 2.301zm1.261-.104c0-1.209 1.742-1.287 2.678-1.287h.325v.247c0 .975-.663 2.093-1.768 2.093-.819 0-1.235-.533-1.235-1.053zM129.704 12h2.808c1.43 0 2.418-.65 2.418-1.872 0-.728-.429-1.365-1.248-1.56v-.013c.598-.26.936-.806.936-1.443 0-1.105-.871-1.69-2.197-1.69h-2.717V12zm1.261-3.796V6.293h1.196c.793 0 1.17.312 1.17.91 0 .611-.377 1.001-1.131 1.001h-1.235zm0 2.912V9.049h1.339c.871 0 1.352.39 1.352 1.04 0 .611-.429 1.027-1.339 1.027h-1.352zm5.492.884h1.261V9.153h.949L140.63 12h1.495l-2.457-3.419v-.026l2.197-3.133h-1.43l-1.794 2.652h-.923V5.422h-1.261V12zm6.183-1.794c0 1.235 1.053 1.95 2.197 1.95.975 0 1.781-.585 2.158-1.339h.026s-.039.221-.039.52V12h1.183V7.84c0-1.664-.949-2.574-2.6-2.574-.923 0-1.924.338-2.457.78l.507.923c.533-.377 1.196-.637 1.846-.637.819 0 1.443.364 1.443 1.443v.13h-.338c-1.365 0-3.926.234-3.926 2.301zm1.261-.104c0-1.209 1.742-1.287 2.678-1.287h.325v.247c0 .975-.663 2.093-1.768 2.093-.819 0-1.235-.533-1.235-1.053z" fill="#2B150D"/><defs><clipPath id="a"><path fill="#fff" transform="translate(0 3)" d="M0 0h10v10H0z"/></clipPath></defs></svg>