<svg width="147" height="16" fill="none" xmlns="http://www.w3.org/2000/svg"><g clip-path="url(#a)"><path d="M4.527 11.387a1.161 1.161 0 0 1-1.643 0L.34 8.843a1.161 1.161 0 0 1 1.642-1.642l1.516 1.516c.115.114.3.114.415 0l4.105-4.105A1.161 1.161 0 0 1 9.66 6.254l-5.133 5.133z" fill="#FFD634"/></g><path d="M19.209 12h3.367c1.599 0 2.73-1.092 2.73-2.73 0-1.768-1.183-2.769-2.795-2.769h-2.015V3.94h4.134V2.822h-5.421V12zm1.287-1.118V7.619h1.846c1.014 0 1.664.637 1.664 1.651 0 1.001-.611 1.612-1.638 1.612h-1.872zm5.921-2.184c0 2.002 1.586 3.458 3.55 3.458 1.95 0 3.535-1.456 3.535-3.458 0-1.989-1.586-3.432-3.549-3.432-1.95 0-3.536 1.443-3.536 3.432zm1.287 0c0-1.365 1.014-2.34 2.262-2.34 1.235 0 2.262.975 2.262 2.34 0 1.378-1.027 2.366-2.262 2.366-1.248 0-2.262-.988-2.262-2.366zm6.425 3.367c1.937-.104 2.691-1.638 2.691-4.615v-.988h1.937V12h1.261V5.422h-4.407V7.45c0 2.379-.52 3.341-1.482 3.484v1.131zm7.408-3.354c0 1.95 1.43 3.445 3.497 3.445.91 0 1.911-.351 2.548-.936l-.533-.923c-.52.468-1.235.767-1.937.767-1.183 0-2.197-.767-2.262-2.184h4.784c.026-.182.052-.364.052-.533 0-1.69-.988-3.081-2.847-3.081-1.872 0-3.302 1.352-3.302 3.445zm1.352-.741c.182-1.092.95-1.729 1.924-1.729.858 0 1.56.598 1.6 1.729h-3.524zm5.884.741c0 1.95 1.43 3.445 3.497 3.445.91 0 1.911-.351 2.548-.936l-.532-.923c-.52.468-1.236.767-1.938.767-1.182 0-2.197-.767-2.261-2.184h4.783c.027-.182.053-.364.053-.533 0-1.69-.989-3.081-2.848-3.081-1.872 0-3.302 1.352-3.302 3.445zm1.352-.741c.182-1.092.95-1.729 1.925-1.729.858 0 1.56.598 1.599 1.729h-3.523zm9.33 4.03h5.29v-1.118h-2.014v-8.06h-1.144L59.39 4.954l.78.806.858-.832c.338-.338.442-.533.442-.533h.026s-.013.273-.013.559v5.928h-2.028V12zm12.976.156c2.457 0 3.25-2.106 3.25-4.758 0-2.639-.793-4.732-3.25-4.732-2.444 0-3.25 2.093-3.25 4.732 0 2.652.806 4.758 3.25 4.758zm0-1.183c-1.495 0-1.924-1.56-1.924-3.575 0-1.989.429-3.549 1.924-3.549 1.508 0 1.924 1.56 1.924 3.549 0 2.015-.416 3.575-1.924 3.575zm8.087 1.183c2.457 0 3.25-2.106 3.25-4.758 0-2.639-.793-4.732-3.25-4.732-2.444 0-3.25 2.093-3.25 4.732 0 2.652.806 4.758 3.25 4.758zm0-1.183c-1.495 0-1.924-1.56-1.924-3.575 0-1.989.429-3.549 1.924-3.549 1.508 0 1.924 1.56 1.924 3.549 0 2.015-.416 3.575-1.924 3.575zm8.087 1.183c2.456 0 3.25-2.106 3.25-4.758 0-2.639-.794-4.732-3.25-4.732-2.445 0-3.25 2.093-3.25 4.732 0 2.652.805 4.758 3.25 4.758zm0-1.183c-1.496 0-1.925-1.56-1.925-3.575 0-1.989.43-3.549 1.924-3.549 1.508 0 1.924 1.56 1.924 3.549 0 2.015-.416 3.575-1.924 3.575zM98.459 12h1.248V6.501h2.301V5.422h-5.837v1.079h2.288V12zm4.143-3.302c0 2.002 1.586 3.458 3.549 3.458 1.95 0 3.536-1.456 3.536-3.458 0-1.989-1.586-3.432-3.549-3.432-1.95 0-3.536 1.443-3.536 3.432zm1.287 0c0-1.365 1.014-2.34 2.262-2.34 1.235 0 2.262.975 2.262 2.34 0 1.378-1.027 2.366-2.262 2.366-1.248 0-2.262-.988-2.262-2.366zM111.206 12h2.808c1.43 0 2.418-.65 2.418-1.872 0-.728-.429-1.365-1.248-1.56v-.013c.598-.26.936-.806.936-1.443 0-1.105-.871-1.69-2.197-1.69h-2.717V12zm1.261-3.796V6.293h1.196c.793 0 1.17.312 1.17.91 0 .611-.377 1.001-1.131 1.001h-1.235zm0 2.912V9.049h1.339c.871 0 1.352.39 1.352 1.04 0 .611-.429 1.027-1.339 1.027h-1.352zm4.947-.91c0 1.235 1.053 1.95 2.197 1.95.975 0 1.781-.585 2.158-1.339h.026s-.039.221-.039.52V12h1.183V7.84c0-1.664-.949-2.574-2.6-2.574-.923 0-1.924.338-2.457.78l.507.923c.533-.377 1.196-.637 1.846-.637.819 0 1.443.364 1.443 1.443v.13h-.338c-1.365 0-3.926.234-3.926 2.301zm1.261-.104c0-1.209 1.742-1.287 2.678-1.287h.325v.247c0 .975-.663 2.093-1.768 2.093-.819 0-1.235-.533-1.235-1.053zm6.128 4.498h1.261v-2.99c0-.338-.052-.572-.052-.572h.026a2.415 2.415 0 0 0 2.041 1.118c1.729 0 2.977-1.352 2.977-3.445 0-2.041-1.105-3.445-2.886-3.445-.962 0-1.794.442-2.21 1.235h-.026s.039-.221.039-.494v-.585h-1.17V14.6zm1.222-5.863c0-1.664.91-2.366 1.898-2.366 1.092 0 1.859.923 1.859 2.353 0 1.495-.858 2.34-1.898 2.34-1.209 0-1.859-1.157-1.859-2.327zm6.157-.039c0 2.002 1.586 3.458 3.549 3.458 1.95 0 3.536-1.456 3.536-3.458 0-1.989-1.586-3.432-3.549-3.432-1.95 0-3.536 1.443-3.536 3.432zm1.287 0c0-1.365 1.014-2.34 2.262-2.34 1.235 0 2.262.975 2.262 2.34 0 1.378-1.027 2.366-2.262 2.366-1.248 0-2.262-.988-2.262-2.366zM140.787 12h2.808c1.43 0 2.418-.65 2.418-1.872 0-.728-.429-1.365-1.248-1.56v-.013c.598-.26.936-.806.936-1.443 0-1.105-.871-1.69-2.197-1.69h-2.717V12zm1.261-3.796V6.293h1.196c.793 0 1.17.312 1.17.91 0 .611-.377 1.001-1.131 1.001h-1.235zm0 2.912V9.049h1.339c.871 0 1.352.39 1.352 1.04 0 .611-.429 1.027-1.339 1.027h-1.352z" fill="#2B150D"/><defs><clipPath id="a"><path fill="#fff" transform="translate(0 3)" d="M0 0h10v10H0z"/></clipPath></defs></svg>