<svg width="133" height="16" fill="none" xmlns="http://www.w3.org/2000/svg"><g clip-path="url(#a)"><path d="M4.527 11.387a1.161 1.161 0 0 1-1.643 0L.34 8.843a1.161 1.161 0 0 1 1.642-1.642l1.516 1.516c.115.114.3.114.415 0l4.105-4.105A1.161 1.161 0 0 1 9.66 6.254l-5.133 5.133z" fill="#FFD634"/></g><path d="M19.209 12h1.287V3.94h3.77V2.822h-5.057V12zm4.742-1.794c0 1.235 1.053 1.95 2.197 1.95.976 0 1.782-.585 2.159-1.339h.026s-.04.221-.04.52V12h1.184V7.84c0-1.664-.95-2.574-2.6-2.574-.924 0-1.924.338-2.457.78l.506.923c.534-.377 1.197-.637 1.847-.637.819 0 1.442.364 1.442 1.443v.13h-.337c-1.366 0-3.927.234-3.927 2.301zm1.261-.104c0-1.209 1.742-1.287 2.678-1.287h.325v.247c0 .975-.663 2.093-1.767 2.093-.82 0-1.236-.533-1.236-1.053zM31.34 14.6h1.261v-2.99c0-.338-.052-.572-.052-.572h.026a2.415 2.415 0 0 0 2.041 1.118c1.73 0 2.977-1.352 2.977-3.445 0-2.041-1.105-3.445-2.886-3.445-.962 0-1.794.442-2.21 1.235h-.026s.04-.221.04-.494v-.585h-1.17V14.6zm1.222-5.863c0-1.664.91-2.366 1.898-2.366 1.092 0 1.86.923 1.86 2.353 0 1.495-.859 2.34-1.899 2.34-1.209 0-1.859-1.157-1.859-2.327zm6.04 1.469c0 1.235 1.053 1.95 2.197 1.95.975 0 1.78-.585 2.158-1.339h.026s-.04.221-.04.52V12h1.184V7.84c0-1.664-.95-2.574-2.6-2.574-.923 0-1.924.338-2.457.78l.507.923c.533-.377 1.196-.637 1.846-.637.819 0 1.443.364 1.443 1.443v.13h-.338c-1.365 0-3.926.234-3.926 2.301zm1.26-.104c0-1.209 1.743-1.287 2.679-1.287h.325v.247c0 .975-.663 2.093-1.768 2.093-.82 0-1.235-.533-1.235-1.053zM45.992 12h1.26V9.179h3.329V12h1.26V5.422h-1.26V8.1h-3.328V5.422H45.99V12zm9.38 0h1.248V6.501h2.301V5.422h-5.837v1.079h2.288V12zm4.788 0h1.209l2.847-3.926c.208-.312.533-.754.572-.871h.026c0 .104-.04.559-.04.871V12h1.223V5.422h-1.222L61.94 9.348c-.221.312-.533.767-.585.884h-.026c.013-.065.039-.533.039-.884V5.422h-1.21V12zm7.106 0h1.391l1.612-2.379h1.105V12h1.261V5.422h-2.626c-1.39 0-2.353.715-2.353 2.067 0 1.001.676 1.703 1.43 1.911v.013s-.156.169-.299.403L67.266 12zm3.016-3.302c-.767 0-1.352-.403-1.352-1.222 0-.845.546-1.183 1.391-1.183h1.053v2.405h-1.092zm7.12 0c0 2.002 1.587 3.458 3.55 3.458 1.95 0 3.536-1.456 3.536-3.458 0-1.989-1.587-3.432-3.55-3.432-1.95 0-3.535 1.443-3.535 3.432zm1.288 0c0-1.365 1.014-2.34 2.262-2.34 1.235 0 2.262.975 2.262 2.34 0 1.378-1.027 2.366-2.262 2.366-1.248 0-2.262-.988-2.262-2.366zM87.376 12h1.248V6.501h2.301V5.422h-5.837v1.079h2.288V12zm7.634-1.092c.78.806 1.898 1.248 2.977 1.248 1.886 0 3.12-1.378 3.12-2.938 0-1.794-1.481-2.574-2.69-2.691l2.495-2.886v-.819h-5.486V3.94h3.108c.506 0 .78-.039.78-.039v.026s-.286.234-.572.598L96.74 6.878l.299.689h.623c1.144 0 2.145.559 2.145 1.69 0 .988-.858 1.677-1.871 1.677-.885 0-1.73-.468-2.224-1.001l-.702.975zM102.035 12h1.43l1.378-2.197c.104-.156.195-.351.195-.351h.026s.104.195.208.351L106.65 12h1.43l-2.249-3.38 2.119-3.198h-1.443l-1.222 2.002c-.091.169-.221.39-.221.39h-.026l-.208-.39-1.222-2.002h-1.443l2.119 3.198-2.249 3.38zm9.777.065c1.937-.104 2.691-1.638 2.691-4.615v-.988h1.937V12h1.261V5.422h-4.407V7.45c0 2.379-.52 3.341-1.482 3.484v1.131zm7.408-3.354c0 1.95 1.43 3.445 3.497 3.445.91 0 1.911-.351 2.548-.936l-.533-.923c-.52.468-1.235.767-1.937.767-1.183 0-2.197-.767-2.262-2.184h4.784c.026-.182.052-.364.052-.533 0-1.69-.988-3.081-2.847-3.081-1.872 0-3.302 1.352-3.302 3.445zm1.352-.741c.182-1.092.949-1.729 1.924-1.729.858 0 1.56.598 1.599 1.729h-3.523zm7.823 4.03h1.248V6.501h2.301V5.422h-5.837v1.079h2.288V12z" fill="#2B150D"/><defs><clipPath id="a"><path fill="#fff" transform="translate(0 3)" d="M0 0h10v10H0z"/></clipPath></defs></svg>