<svg width="102" height="16" fill="none" xmlns="http://www.w3.org/2000/svg"><g clip-path="url(#a)"><path d="M4.527 11.387a1.161 1.161 0 0 1-1.643 0L.34 8.843a1.161 1.161 0 0 1 1.642-1.642l1.516 1.516c.115.114.3.114.415 0l4.105-4.105A1.161 1.161 0 0 1 9.66 6.254l-5.133 5.133z" fill="#FFD634"/></g><path d="M18.156 10.921v1.183c2.535-.143 3.315-2.691 3.315-7.098V3.94h2.847V12h1.287V2.822h-5.356v2.171c0 3.731-.546 5.72-2.093 5.928zm9.305 2.444-.442.962s.533.403 1.26.403c.924 0 1.742-.52 2.133-1.547l3.093-7.761h-1.364l-1.6 4.316c-.117.338-.22.78-.22.78h-.027s-.117-.468-.247-.793l-1.65-4.303H26.98l2.755 6.5-.325.754c-.247.598-.675.975-1.195.975-.39 0-.755-.286-.755-.286zm9.076-3.653c.65 0 1.365-.221 1.78-.481h.027s-.013.208-.013.39V12h1.26V5.422h-1.26v2.73a2.593 2.593 0 0 1-1.456.468c-1.08 0-1.313-.585-1.313-1.235V5.422h-1.235v2.145c0 1.404.806 2.145 2.21 2.145zM41.547 12h8.502V5.422H48.84v5.486h-2.43V5.422h-1.223v5.486h-2.43V5.422h-1.21V12zm10.449 0h1.209l2.846-3.926c.209-.312.533-.754.572-.871h.027c0 .104-.04.559-.04.871V12h1.223V5.422H56.61l-2.834 3.926c-.221.312-.534.767-.586.884h-.026c.014-.065.04-.533.04-.884V5.422h-1.21V12zm7.34-3.289c0 1.95 1.43 3.445 3.497 3.445.91 0 1.911-.351 2.548-.936l-.533-.923c-.52.468-1.235.767-1.937.767-1.183 0-2.197-.767-2.262-2.184h4.784c.026-.182.052-.364.052-.533 0-1.69-.988-3.081-2.847-3.081-1.872 0-3.302 1.352-3.302 3.445zm1.352-.741c.182-1.092.949-1.729 1.924-1.729.858 0 1.56.598 1.599 1.729h-3.523zM70.251 12h5.434v1.56h1.157v-2.652h-.923V5.422h-1.274v5.486h-3.133V5.422h-1.26V12zm7.43-3.289c0 1.95 1.43 3.445 3.497 3.445.91 0 1.91-.351 2.548-.936l-.533-.923c-.52.468-1.235.767-1.937.767-1.183 0-2.197-.767-2.262-2.184h4.784c.026-.182.052-.364.052-.533 0-1.69-.988-3.081-2.847-3.081-1.872 0-3.302 1.352-3.302 3.445zm1.352-.741c.182-1.092.949-1.729 1.924-1.729.858 0 1.56.598 1.599 1.729h-3.523zM85.346 12h1.261V9.179h3.328V12h1.261V5.422h-1.26V8.1h-3.329V5.422h-1.26V12zm13.749 0h1.261V5.422h-1.261V12zm-5.954 0h2.535c1.651 0 2.405-.845 2.405-2.08 0-1.495-1.027-2.119-2.392-2.119h-1.287V5.422h-1.261V12zm1.261-.91V8.711h1.092c.91 0 1.313.494 1.313 1.196 0 .689-.39 1.183-1.3 1.183h-1.105z" fill="#2B150D"/><defs><clipPath id="a"><path fill="#fff" transform="translate(0 3)" d="M0 0h10v10H0z"/></clipPath></defs></svg>