<svg width="244" height="22" fill="none" xmlns="http://www.w3.org/2000/svg"><path d="M16.313 15h.897V6.667h3.9v-.806h-4.797V15zm4.652-1.755c0 1.261 1.105 1.911 2.21 1.911 1.053 0 1.872-.676 2.21-1.469h.026s-.039.221-.039.546V15h.845v-4.186c0-1.638-.87-2.509-2.444-2.509-.87 0-1.794.299-2.314.741l.403.676a3.195 3.195 0 0 1 1.86-.624c.922 0 1.611.429 1.611 1.69v.182h-.39c-1.248 0-3.978.13-3.978 2.275zm.897-.078c0-1.456 2.08-1.495 3.094-1.495h.377v.299c0 1.144-.74 2.444-2.002 2.444-.975 0-1.469-.637-1.469-1.248zm6.391 4.433h.884v-3.172c0-.338-.039-.572-.039-.572h.026a2.391 2.391 0 0 0 2.158 1.3c1.703 0 2.925-1.352 2.925-3.432 0-2.015-1.079-3.419-2.847-3.419-1.014 0-1.872.507-2.275 1.352h-.026s.04-.221.04-.507v-.689h-.846V17.6zm.858-5.85c0-1.859 1.027-2.639 2.12-2.639 1.221 0 2.08 1.027 2.08 2.626 0 1.664-.963 2.626-2.12 2.626-1.339 0-2.08-1.3-2.08-2.613zm6.226 1.495c0 1.261 1.104 1.911 2.21 1.911 1.053 0 1.872-.676 2.21-1.469h.026s-.04.221-.04.546V15h.846v-4.186c0-1.638-.871-2.509-2.444-2.509-.872 0-1.795.299-2.315.741l.404.676a3.195 3.195 0 0 1 1.858-.624c.924 0 1.613.429 1.613 1.69v.182h-.39c-1.248 0-3.978.13-3.978 2.275zm.896-.078c0-1.456 2.08-1.495 3.095-1.495h.377v.299c0 1.144-.741 2.444-2.002 2.444-.976 0-1.47-.637-1.47-1.248zM42.624 15h.884v-2.964h3.822V15h.884V8.461h-.884v2.795h-3.822V8.461h-.884V15zm9.319 0h.884V9.241h2.392v-.78h-5.655v.78h2.379V15zm4.633 0h.845l3.211-4.303c.247-.364.65-.884.663-.949h.026c0 .052-.039.572-.039.949V15h.871V8.461h-.845l-3.21 4.29c-.26.364-.65.923-.677.975h-.026c.013-.026.04-.572.04-.975v-4.29h-.859V15zm7.018 0h1.027l1.716-2.509h1.352V15h.884V8.461h-2.3c-1.353 0-2.315.676-2.315 1.989 0 1.066.741 1.729 1.508 1.885v.026s-.169.182-.299.39L63.594 15zm2.782-3.198c-.845 0-1.508-.468-1.508-1.352 0-.936.598-1.313 1.573-1.313h1.248v2.665h-1.313zm4.227-2.301h1.014v-1.04h-1.014v1.04zm0 5.499h1.014v-1.04h-1.014V15z" fill="#000"/><path d="M76.798 15h1.066v-1.079h-1.066V15zm2.996 0h1.066v-1.079h-1.066V15zm2.996 0h1.066v-1.079H82.79V15zm2.996 0h1.066v-1.079h-1.066V15zm2.996 0h1.066v-1.079h-1.066V15zm2.996 0h1.066v-1.079h-1.066V15zm2.996 0h1.067v-1.079h-1.066V15zm2.997 0h1.066v-1.079H97.77V15zm2.996 0h1.066v-1.079h-1.066V15zm2.996 0h1.066v-1.079h-1.066V15zm2.996 0h1.066v-1.079h-1.066V15zm2.996 0h1.066v-1.079h-1.066V15zm2.996 0h1.066v-1.079h-1.066V15zm2.996 0h1.066v-1.079h-1.066V15zm2.996 0h1.066v-1.079h-1.066V15zm2.996 0h1.066v-1.079h-1.066V15zm2.996 0h1.066v-1.079h-1.066V15zm2.997 0h1.066v-1.079h-1.066V15zm2.996 0h1.066v-1.079h-1.066V15zm2.996 0h1.066v-1.079h-1.066V15zm2.996 0h1.066v-1.079h-1.066V15zm2.996 0h1.066v-1.079h-1.066V15zm2.996 0h1.066v-1.079h-1.066V15zm2.996 0h1.066v-1.079h-1.066V15zm2.996 0h1.066v-1.079h-1.066V15zm2.996 0h1.066v-1.079H151.7V15zm2.996 0h1.066v-1.079h-1.066V15zm2.996 0h1.066v-1.079h-1.066V15zm2.997 0h1.066v-1.079h-1.066V15zm2.996 0h1.066v-1.079h-1.066V15zm2.996 0h1.066v-1.079h-1.066V15zm2.996 0h1.066v-1.079h-1.066V15zm2.996 0h1.066v-1.079h-1.066V15zm2.996 0h1.066v-1.079h-1.066V15zm2.996 0h1.066v-1.079h-1.066V15zm2.996 0h1.066v-1.079h-1.066V15zm2.996 0h1.066v-1.079h-1.066V15zm2.996 0h1.066v-1.079h-1.066V15zm2.997 0h1.066v-1.079h-1.066V15zm2.996 0h1.066v-1.079h-1.066V15zm2.996 0h1.066v-1.079h-1.066V15zm2.996 0h1.066v-1.079h-1.066V15zm2.996 0h1.066v-1.079h-1.066V15zm2.996 0h1.066v-1.079h-1.066V15zm2.996 0h1.066v-1.079h-1.066V15zm2.996 0h1.066v-1.079h-1.066V15zm2.996 0h1.066v-1.079h-1.066V15zm2.996 0h1.066v-1.079h-1.066V15zm2.996 0h1.066v-1.079h-1.066V15zm2.997 0h1.066v-1.079h-1.066V15zm2.996 0h1.066v-1.079h-1.066V15zm2.996 0h1.066v-1.079h-1.066V15z" fill="#D1D1D1"/><path d="M5 6c-2.757 0-5 2.243-5 5s2.243 5 5 5 5-2.243 5-5-2.243-5-5-5zm2.871 4.155L4.73 13.297a.703.703 0 0 1-.5.207.703.703 0 0 1-.5-.207l-1.601-1.601a.703.703 0 0 1-.207-.5c0-.19.073-.367.207-.5a.702.702 0 0 1 .5-.207c.189 0 .366.073.5.207l1.1 1.1 2.642-2.64a.702.702 0 0 1 .5-.208.708.708 0 0 1 .5 1.207z" fill="#FF7A1B"/></svg>