<svg width="244" height="22" fill="none" xmlns="http://www.w3.org/2000/svg"><path d="M16.313 15h3.224c1.534 0 2.743-.936 2.743-2.561 0-1.092-.598-2.002-1.534-2.262v-.026c.702-.351 1.157-1.04 1.157-1.989 0-1.43-1.04-2.301-2.47-2.301h-3.12V15zm.897-5.174V6.667h2.197c.975 0 1.573.624 1.573 1.56 0 .949-.624 1.599-1.547 1.599H17.21zm0 4.368v-3.588h2.327c1.066 0 1.807.715 1.807 1.807s-.689 1.781-1.794 1.781h-2.34zm6.543.806h.858l.325-4.225c.026-.351 0-1.131 0-1.131h.026s.182.468.43.975l1.806 3.627h.806l1.82-3.653c.273-.533.416-.949.416-.949h.026s-.013.78 0 1.131L30.591 15h.871l-.546-6.539h-.923l-1.976 4.03c-.195.416-.403.923-.403.923h-.026s-.22-.52-.403-.923l-1.963-4.03h-.936L23.753 15zm9.124-3.263c0 2.015 1.482 3.419 3.432 3.419.858 0 1.807-.351 2.418-.91l-.403-.676a3.055 3.055 0 0 1-1.99.78c-1.351 0-2.495-.923-2.534-2.587h5.018c.013-.143.026-.299.026-.442 0-1.625-.923-3.016-2.73-3.016-1.768 0-3.237 1.287-3.237 3.432zm.962-.676c.208-1.313 1.157-2.028 2.249-2.028.975 0 1.807.663 1.859 2.028h-4.108zm6.223.676c0 2.028 1.495 3.419 3.432 3.419 1.001 0 1.976-.403 2.548-1.04l-.403-.663c-.52.572-1.339.897-2.093.897-1.456 0-2.574-1.079-2.574-2.613 0-1.56 1.118-2.639 2.548-2.639.728 0 1.456.338 1.911.806l.455-.663c-.585-.637-1.534-.936-2.392-.936-1.924 0-3.432 1.417-3.432 3.432zM49.175 15h.884V9.241h2.392v-.78h-5.655v.78h2.38V15zm4.634 0h.845l3.21-4.303c.248-.364.65-.884.664-.949h.026c0 .052-.04.572-.04.949V15h.872V8.461h-.845l-3.211 4.29c-.26.364-.65.923-.676.975h-.026c.013-.026.039-.572.039-.975v-4.29h-.858V15zm7.434 0h.857l.325-4.225c.027-.351 0-1.131 0-1.131h.027s.181.468.428.975l1.807 3.627h.806l1.82-3.653c.273-.533.416-.949.416-.949h.026s-.012.78 0 1.131L68.081 15h.87l-.545-6.539h-.924l-1.975 4.03c-.196.416-.404.923-.404.923h-.025s-.222-.52-.404-.923l-1.963-4.03h-.935L61.242 15zm9.123-3.302c0 1.976 1.534 3.458 3.445 3.458 1.91 0 3.458-1.482 3.458-3.458 0-1.937-1.547-3.393-3.458-3.393-1.911 0-3.445 1.456-3.445 3.393zm.91 0c0-1.482 1.13-2.6 2.535-2.6 1.404 0 2.548 1.118 2.548 2.6 0 1.534-1.144 2.652-2.548 2.652-1.404 0-2.535-1.118-2.535-2.652zm7.202.039c0 2.028 1.495 3.419 3.432 3.419 1.001 0 1.976-.403 2.548-1.04l-.403-.663c-.52.572-1.339.897-2.093.897-1.456 0-2.574-1.079-2.574-2.613 0-1.56 1.118-2.639 2.548-2.639.728 0 1.456.338 1.911.806l.455-.663c-.585-.637-1.534-.936-2.392-.936-1.924 0-3.432 1.417-3.432 3.432zM87.591 15h.884V9.241h2.392v-.78h-5.655v.78h2.38V15zm4.634 0H94.5c1.573 0 2.314-.819 2.314-2.002 0-1.547-1.118-2.041-2.288-2.041h-1.417V8.461h-.884V15zm.884-.702v-2.639h1.326c1.027 0 1.469.533 1.469 1.326 0 .78-.43 1.313-1.482 1.313h-1.313zm5.106-4.797h1.014v-1.04h-1.014v1.04zm0 5.499h1.014v-1.04h-1.014V15z" fill="#000"/><path d="M104.41 15h1.066v-1.079h-1.066V15zm2.996 0h1.066v-1.079h-1.066V15zm2.996 0h1.066v-1.079h-1.066V15zm2.997 0h1.066v-1.079h-1.066V15zm2.996 0h1.066v-1.079h-1.066V15zm2.996 0h1.066v-1.079h-1.066V15zm2.996 0h1.066v-1.079h-1.066V15zm2.996 0h1.066v-1.079h-1.066V15zm2.996 0h1.066v-1.079h-1.066V15zm2.996 0h1.066v-1.079h-1.066V15zm2.996 0h1.066v-1.079h-1.066V15zm2.996 0h1.066v-1.079h-1.066V15zm2.996 0h1.066v-1.079h-1.066V15zm2.996 0h1.066v-1.079h-1.066V15zm2.997 0h1.066v-1.079h-1.066V15zm2.996 0h1.066v-1.079h-1.066V15zm2.996 0h1.066v-1.079h-1.066V15zm2.996 0h1.066v-1.079h-1.066V15zm2.996 0h1.066v-1.079h-1.066V15zm2.996 0h1.066v-1.079h-1.066V15zm2.996 0h1.066v-1.079h-1.066V15zm2.996 0h1.066v-1.079h-1.066V15zm2.996 0h1.066v-1.079h-1.066V15zm2.996 0h1.066v-1.079h-1.066V15zm2.996 0h1.066v-1.079h-1.066V15zm2.997 0h1.066v-1.079h-1.066V15zm2.996 0h1.066v-1.079h-1.066V15zm2.996 0h1.066v-1.079h-1.066V15zm2.996 0h1.066v-1.079h-1.066V15zm2.996 0h1.066v-1.079h-1.066V15zm2.996 0h1.066v-1.079h-1.066V15zm2.996 0h1.066v-1.079h-1.066V15zm2.996 0h1.066v-1.079h-1.066V15zm2.996 0h1.066v-1.079h-1.066V15zm2.996 0h1.066v-1.079h-1.066V15zm2.997 0h1.066v-1.079h-1.066V15zm2.996 0h1.066v-1.079h-1.066V15zm2.996 0h1.066v-1.079h-1.066V15zm2.996 0h1.066v-1.079h-1.066V15zm2.996 0h1.066v-1.079h-1.066V15zm2.996 0h1.066v-1.079h-1.066V15zm2.996 0h1.066v-1.079h-1.066V15z" fill="#D1D1D1"/><path d="M5 9.869c1.462 0 2.647-1.314 2.647-2.935C7.647 5.314 7.257 4 5 4 2.742 4 2.353 5.314 2.353 6.934 2.353 8.555 3.538 9.87 5 9.87zM0 14.35c0-.029 0-.1 0 0zM10 14.426c0-.187 0-.027 0 0zM9.994 14.23c-.05-2.822-.453-3.627-3.545-4.136 0 0-.435.506-1.449.506s-1.45-.506-1.45-.506C.494 10.598.064 11.39.009 14.139c-.005.225-.007.236-.008.21v.297S.738 16 5 16s4.999-1.354 4.999-1.354v-.22a1.66 1.66 0 0 1-.005-.195z" fill="#FF7A1B"/></svg>