<svg width="180" height="22" fill="none" xmlns="http://www.w3.org/2000/svg"><path d="M16.313 15h.897v-3.588h2.262c1.625 0 2.821-1.092 2.821-2.795 0-1.69-1.196-2.756-2.821-2.756h-3.159V15zm.897-4.394V6.667h2.158c1.209 0 2.002.715 2.002 1.95 0 1.248-.793 1.989-2.015 1.989H17.21zm5.863 2.639c0 1.261 1.105 1.911 2.21 1.911 1.053 0 1.872-.676 2.21-1.469h.026s-.04.221-.04.546V15h.846v-4.186c0-1.638-.871-2.509-2.444-2.509-.871 0-1.794.299-2.314.741l.403.676a3.195 3.195 0 0 1 1.859-.624c.923 0 1.612.429 1.612 1.69v.182h-.39c-1.248 0-3.978.13-3.978 2.275zm.897-.078c0-1.456 2.08-1.495 3.094-1.495h.377v.299c0 1.144-.741 2.444-2.002 2.444-.975 0-1.47-.637-1.47-1.248zm5.728 1.04c.48.468 1.248.949 2.275.949 1.26 0 2.43-.676 2.43-2.002 0-.871-.52-1.391-1.234-1.573v-.026c.559-.221 1-.676 1-1.495 0-1.17-.922-1.755-2.131-1.755-.95 0-1.664.338-2.12.715l.39.624c.443-.351.963-.585 1.6-.585.806 0 1.352.364 1.352 1.105 0 .754-.572 1.105-1.456 1.105h-.69v.702h.794c1.04 0 1.586.416 1.586 1.157 0 .871-.78 1.274-1.573 1.274-.884 0-1.495-.533-1.755-.806l-.468.611zm6.129.793h.858l.325-4.225c.026-.351 0-1.131 0-1.131h.026s.181.468.428.975l1.808 3.627h.806l1.82-3.653c.272-.533.415-.949.415-.949h.026s-.012.78 0 1.131L42.665 15h.871l-.545-6.539h-.924l-1.976 4.03c-.195.416-.403.923-.403.923h-.026s-.22-.52-.403-.923l-1.963-4.03h-.936L35.828 15zm9.123-3.263c0 2.015 1.482 3.419 3.432 3.419.858 0 1.807-.351 2.418-.91l-.403-.676a3.055 3.055 0 0 1-1.99.78c-1.351 0-2.495-.923-2.534-2.587h5.018c.013-.143.026-.299.026-.442 0-1.625-.923-3.016-2.73-3.016-1.768 0-3.237 1.287-3.237 3.432zm.962-.676c.208-1.313 1.157-2.028 2.249-2.028.975 0 1.807.663 1.859 2.028h-4.108zm6.665 6.539h.884v-3.172c0-.338-.039-.572-.039-.572h.026a2.391 2.391 0 0 0 2.158 1.3c1.703 0 2.925-1.352 2.925-3.432 0-2.015-1.079-3.419-2.847-3.419-1.014 0-1.872.507-2.275 1.352h-.026s.04-.221.04-.507v-.689h-.846V17.6zm.858-5.85c0-1.859 1.027-2.639 2.12-2.639 1.221 0 2.08 1.027 2.08 2.626 0 1.664-.963 2.626-2.12 2.626-1.339 0-2.08-1.3-2.08-2.613zM65.914 15h.884V8.461h-.884V15zm-5.681 0h2.262c1.573 0 2.314-.819 2.314-2.002 0-1.547-1.118-2.041-2.288-2.041h-1.404V8.461h-.884V15zm.884-.702v-2.639h1.313c1.027 0 1.469.533 1.469 1.326 0 .78-.43 1.313-1.482 1.313h-1.3zm7.696-4.797h1.014v-1.04h-1.014v1.04zm0 5.499h1.014v-1.04h-1.014V15z" fill="#000"/><path d="M75.008 15h1.066v-1.079h-1.066V15zm2.996 0h1.066v-1.079h-1.066V15zM81 15h1.066v-1.079H81V15zm2.996 0h1.066v-1.079h-1.066V15zm2.996 0h1.066v-1.079h-1.066V15zm2.996 0h1.066v-1.079h-1.066V15zm2.996 0h1.067v-1.079h-1.067V15zm2.997 0h1.066v-1.079H95.98V15zm2.996 0h1.066v-1.079h-1.066V15zm2.996 0h1.066v-1.079h-1.066V15zm2.996 0h1.066v-1.079h-1.066V15zm2.996 0h1.066v-1.079h-1.066V15zm2.996 0h1.066v-1.079h-1.066V15zm2.996 0h1.066v-1.079h-1.066V15zm2.996 0h1.066v-1.079h-1.066V15zm2.996 0h1.066v-1.079h-1.066V15zm2.996 0h1.066v-1.079h-1.066V15zm2.996 0h1.066v-1.079h-1.066V15zm2.997 0h1.066v-1.079h-1.066V15zm2.996 0H133v-1.079h-1.066V15zm2.996 0h1.066v-1.079h-1.066V15zm2.996 0h1.066v-1.079h-1.066V15zm2.996 0h1.066v-1.079h-1.066V15zm2.996 0h1.066v-1.079h-1.066V15zm2.996 0h1.066v-1.079h-1.066V15zm2.996 0h1.066v-1.079h-1.066V15zm2.996 0h1.066v-1.079h-1.066V15zm2.996 0h1.066v-1.079h-1.066V15zm2.997 0h1.066v-1.079h-1.066V15zm2.996 0h1.066v-1.079h-1.066V15z" fill="#D1D1D1"/><path d="M8.732 6h-4.17a.268.268 0 0 0-.268.268v.716c0 .148.12.269.269.269h2.299l-5.61 5.609v-2.3a.268.268 0 0 0-.268-.268H.268a.268.268 0 0 0-.268.269v4.169c0 .148.12.268.268.268h4.17c.148 0 .268-.12.268-.268v-.716a.268.268 0 0 0-.269-.268H2.138l5.61-5.61v2.3c0 .147.12.268.268.268h.716c.148 0 .268-.12.268-.269V6.268A.268.268 0 0 0 8.732 6z" fill="#FF7A1B"/></svg>