<svg width="33" height="32" fill="none" xmlns="http://www.w3.org/2000/svg"><g clip-path="url(#a)"><path d="M16.567 24.864h-.172a60.278 60.278 0 0 1-3.835-.106c-1.12-.068-2.142-.455-2.955-1.118-.786-.64-1.322-1.507-1.594-2.574-.237-.928-.25-1.84-.262-2.722a189.86 189.86 0 0 1-.02-2.146c.002-.765.011-1.515.02-2.148.012-.882.025-1.794.262-2.723.272-1.067.808-1.933 1.594-2.573.813-.664 1.835-1.05 2.955-1.119a60.396 60.396 0 0 1 3.838-.105c1.36-.003 2.614.031 3.835.105 1.12.068 2.142.455 2.955 1.119.786.64 1.322 1.506 1.594 2.573.237.929.25 1.841.262 2.723.009.633.018 1.383.02 2.145v.003c-.002.763-.011 1.513-.02 2.146-.012.881-.025 1.793-.262 2.722-.272 1.067-.808 1.933-1.594 2.574-.813.663-1.835 1.05-2.955 1.118-1.169.071-2.37.106-3.666.106zm-.172-1.355c1.337.004 2.564-.03 3.756-.102.846-.052 1.58-.327 2.181-.817.556-.453.939-1.078 1.138-1.858.197-.774.209-1.604.22-2.407.008-.628.017-1.373.02-2.128-.003-.756-.012-1.5-.02-2.129-.011-.803-.023-1.633-.22-2.406-.199-.78-.582-1.405-1.137-1.859-.602-.49-1.336-.765-2.182-.816a59.164 59.164 0 0 0-3.753-.103 59.003 59.003 0 0 0-3.756.103c-.846.051-1.58.326-2.182.816-.555.454-.938 1.079-1.137 1.859-.197.773-.209 1.603-.22 2.406-.008.63-.017 1.375-.02 2.13.003.753.012 1.498.02 2.127.011.803.023 1.633.22 2.407.199.78.582 1.405 1.137 1.858.602.49 1.335.765 2.182.816 1.192.073 2.42.107 3.753.104zm-.032-3.08a4.237 4.237 0 0 1-4.232-4.232 4.237 4.237 0 0 1 4.232-4.232 4.237 4.237 0 0 1 4.232 4.232 4.237 4.237 0 0 1-4.232 4.232zm0-7.11a2.881 2.881 0 0 0-2.878 2.878 2.881 2.881 0 0 0 2.878 2.878 2.881 2.881 0 0 0 2.877-2.878 2.881 2.881 0 0 0-2.877-2.878zm4.706-2.709a1.016 1.016 0 1 0 0 2.032 1.016 1.016 0 0 0 0-2.032z" fill="#FF7A1B"/></g><circle cx="16.2" cy="16" r="15" stroke="#FF7A1B" stroke-width="2"/><defs><clipPath id="a"><path fill="#fff" transform="translate(7.73 7.53)" d="M0 0h17.335v17.335H0z"/></clipPath></defs></svg>