<svg width="32" height="32" fill="none" xmlns="http://www.w3.org/2000/svg"><g clip-path="url(#a)"><path d="M24.99 15.806c0 4.818-3.935 8.723-8.791 8.723a8.817 8.817 0 0 1-4.249-1.084L7.083 24.99 8.67 20.31a8.634 8.634 0 0 1-1.261-4.503c0-4.818 3.935-8.723 8.79-8.723 4.856.001 8.791 3.906 8.791 8.723zm-8.792-7.332c-4.075 0-7.39 3.29-7.39 7.334 0 1.605.523 3.09 1.408 4.299l-.923 2.723 2.84-.902a7.389 7.389 0 0 0 4.065 1.212c4.075 0 7.392-3.29 7.392-7.334 0-4.042-3.316-7.332-7.392-7.332zm4.44 9.341c-.055-.088-.198-.141-.413-.249-.214-.107-1.275-.624-1.472-.694-.199-.072-.342-.108-.486.106-.142.214-.555.696-.682.84-.126.142-.251.16-.467.055-.215-.109-.91-.333-1.733-1.061a6.436 6.436 0 0 1-1.198-1.481c-.127-.214-.013-.33.094-.436.096-.096.215-.25.323-.375.108-.125.144-.213.216-.356.07-.143.034-.267-.019-.375-.053-.108-.484-1.159-.664-1.587-.18-.427-.359-.357-.485-.357-.125 0-.269-.017-.413-.017a.789.789 0 0 0-.574.266c-.196.214-.753.731-.753 1.783 0 1.054.77 2.07.879 2.212.108.142 1.491 2.372 3.682 3.228 2.191.855 2.191.57 2.586.534.396-.037 1.275-.517 1.454-1.016.18-.501.18-.93.125-1.02z" fill="#BBB"/></g><circle cx="16" cy="16" r="15" stroke="#BBB" stroke-width="2"/><defs><clipPath id="a"><path fill="#fff" transform="translate(6.902 6.902)" d="M0 0h18.088v18.088H0z"/></clipPath></defs></svg>