<svg width="33" height="32" fill="none" xmlns="http://www.w3.org/2000/svg"><g clip-path="url(#a)"><path d="M16.347 22.437h-.005c-.551-.003-5.425-.046-6.805-.404-.965-.249-1.727-.978-1.987-1.903-.361-1.3-.338-3.803-.336-4.003-.002-.199-.026-2.722.335-4.033v-.004c.258-.914 1.037-1.666 1.985-1.916.003 0 .005 0 .007-.002 1.366-.343 6.248-.385 6.8-.39h.01c.553.005 5.44.047 6.808.406.962.247 1.723.976 1.984 1.9.375 1.311.34 3.84.337 4.054.002.21.024 2.69-.335 3.998l-.001.003c-.26.925-1.022 1.655-1.988 1.904h-.004c-1.365.344-6.248.386-6.8.39h-.005zm-7.419-9.992c-.317 1.157-.287 3.648-.287 3.673v.018c-.01.691.024 2.692.287 3.64.128.454.504.813.98.936 1.019.264 4.988.347 6.439.357 1.454-.01 5.43-.09 6.44-.344.475-.123.85-.482.978-.936.264-.962.297-2.953.287-3.64v-.021c.014-.7-.012-2.724-.285-3.68l-.001-.002a1.365 1.365 0 0 0-.98-.938c-1.01-.264-4.985-.347-6.44-.357-1.453.01-5.424.09-6.438.344a1.402 1.402 0 0 0-.98.95zm15.527 7.52zm-9.927-1.085v-5.54l4.995 2.77-4.995 2.77z" fill="#BBB"/></g><circle cx="16.6" cy="16" r="15" stroke="#BBB" stroke-width="2"/><defs><clipPath id="a"><path fill="#fff" transform="translate(7.394 7.53)" d="M0 0h18.088v17.335H0z"/></clipPath></defs></svg>