<svg width="223" height="70" fill="none" xmlns="http://www.w3.org/2000/svg"><rect y="26" width="223" height="44" rx="6" fill="#FF7A1B"/><path d="M50.659 51.656c.88.976 2.304 1.536 3.664 1.536 2.128 0 3.84-1.296 3.84-3.392 0-1.392-.8-2.368-1.984-2.704v-.032c.8-.4 1.632-1.168 1.632-2.544 0-1.888-1.456-3.008-3.392-3.008-.96 0-2.224.176-3.424 1.168l.672 1.184c.832-.704 1.728-.96 2.528-.96 1.392 0 2 .832 2 1.808 0 1.072-.896 1.824-2.032 1.824h-1.12v1.312h1.392c1.232 0 2.112.688 2.112 1.872 0 1.28-.976 2.048-2.352 2.048-1.056 0-2.064-.544-2.656-1.184l-.88 1.072zm8.83-.864c0 1.52 1.296 2.4 2.704 2.4 1.2 0 2.192-.72 2.656-1.648h.032s-.048.272-.048.64V53h1.456v-5.12c0-2.048-1.168-3.168-3.2-3.168-1.136 0-2.368.416-3.024.96l.624 1.136c.656-.464 1.472-.784 2.272-.784 1.008 0 1.776.448 1.776 1.776v.16h-.416c-1.68 0-4.832.288-4.832 2.832zm1.552-.128c0-1.488 2.144-1.584 3.296-1.584h.4v.304c0 1.2-.816 2.576-2.176 2.576-1.008 0-1.52-.656-1.52-1.296zM68.583 53h1.552v-3.504h1.168L73.719 53h1.84l-3.024-4.208v-.032l2.704-3.856h-1.76l-2.208 3.264h-1.136v-3.264h-1.552V53zm7.61-2.208c0 1.52 1.295 2.4 2.703 2.4 1.2 0 2.192-.72 2.656-1.648h.032s-.048.272-.048.64V53h1.456v-5.12c0-2.048-1.168-3.168-3.2-3.168-1.136 0-2.368.416-3.024.96l.624 1.136c.656-.464 1.472-.784 2.272-.784 1.008 0 1.776.448 1.776 1.776v.16h-.416c-1.68 0-4.832.288-4.832 2.832zm1.551-.128c0-1.488 2.144-1.584 3.296-1.584h.4v.304c0 1.2-.816 2.576-2.176 2.576-1.008 0-1.52-.656-1.52-1.296zm6.758 1.344a4.366 4.366 0 0 0 2.976 1.184c1.664 0 3.104-.848 3.104-2.512 0-1.04-.64-1.648-1.456-1.904v-.032c.64-.272 1.184-.832 1.184-1.84 0-1.44-1.2-2.192-2.736-2.192-1.28 0-2.192.416-2.816.88l.576 1.04c.624-.464 1.264-.704 1.968-.704.896 0 1.44.416 1.44 1.168 0 .816-.624 1.168-1.536 1.168h-.848v1.12h.992c1.136 0 1.664.448 1.664 1.232 0 .88-.752 1.328-1.68 1.328-.976 0-1.744-.576-2.112-.96l-.72 1.024zm7.284-1.216c0 1.52 1.296 2.4 2.704 2.4 1.2 0 2.192-.72 2.656-1.648h.032s-.048.272-.048.64V53h1.456v-5.12c0-2.048-1.168-3.168-3.2-3.168-1.136 0-2.368.416-3.024.96l.624 1.136c.656-.464 1.472-.784 2.272-.784 1.008 0 1.776.448 1.776 1.776v.16h-.416c-1.68 0-4.832.288-4.832 2.832zm1.552-.128c0-1.488 2.144-1.584 3.296-1.584h.4v.304c0 1.2-.816 2.576-2.176 2.576-1.008 0-1.52-.656-1.52-1.296zM102.722 53h1.536v-6.768h2.832v-1.328h-7.184v1.328h2.816V53zm5.892 0h3.152c2.048 0 2.976-1.04 2.976-2.56 0-1.84-1.264-2.608-2.944-2.608h-1.632v-2.928h-1.552V53zm1.552-1.12v-2.928h1.392c1.12 0 1.6.608 1.6 1.472 0 .848-.48 1.456-1.6 1.456h-1.392zm9.461.128a4.366 4.366 0 0 0 2.976 1.184c1.664 0 3.104-.848 3.104-2.512 0-1.04-.64-1.648-1.456-1.904v-.032c.64-.272 1.184-.832 1.184-1.84 0-1.44-1.2-2.192-2.736-2.192-1.28 0-2.192.416-2.816.88l.576 1.04c.624-.464 1.264-.704 1.968-.704.896 0 1.44.416 1.44 1.168 0 .816-.624 1.168-1.536 1.168h-.848v1.12h.992c1.136 0 1.664.448 1.664 1.232 0 .88-.752 1.328-1.68 1.328-.976 0-1.744-.576-2.112-.96l-.72 1.024zm7.956.992h3.456c1.76 0 2.976-.8 2.976-2.304 0-.896-.528-1.68-1.536-1.92v-.016c.736-.32 1.152-.992 1.152-1.776 0-1.36-1.072-2.08-2.704-2.08h-3.344V53zm1.552-4.672v-2.352h1.472c.976 0 1.44.384 1.44 1.12 0 .752-.464 1.232-1.392 1.232h-1.52zm0 3.584v-2.544h1.648c1.072 0 1.664.48 1.664 1.28 0 .752-.528 1.264-1.648 1.264h-1.664zm6.232-2.976c0 2.464 1.952 4.256 4.368 4.256 2.4 0 4.352-1.792 4.352-4.256 0-2.448-1.952-4.224-4.368-4.224-2.4 0-4.352 1.776-4.352 4.224zm1.584 0c0-1.68 1.248-2.88 2.784-2.88 1.52 0 2.784 1.2 2.784 2.88 0 1.696-1.264 2.912-2.784 2.912-1.536 0-2.784-1.216-2.784-2.912zM145.958 53h1.552v-3.472h4.096V53h1.552v-8.096h-1.552V48.2h-4.096v-3.296h-1.552V53zm9.066-4.064c0 2.464 1.952 4.256 4.368 4.256 2.4 0 4.352-1.792 4.352-4.256 0-2.448-1.952-4.224-4.368-4.224-2.4 0-4.352 1.776-4.352 4.224zm1.584 0c0-1.68 1.248-2.88 2.784-2.88 1.52 0 2.784 1.2 2.784 2.88 0 1.696-1.264 2.912-2.784 2.912-1.536 0-2.784-1.216-2.784-2.912zM165.614 53h1.552v-3.504h1.168L170.75 53h1.84l-3.024-4.208v-.032l2.704-3.856h-1.76l-2.208 3.264h-1.136v-3.264h-1.552V53z" fill="#fff"/><path d="m55.65 13.365-.442.962s.533.403 1.261.403c.923 0 1.742-.52 2.132-1.547l3.094-7.761H60.33l-1.599 4.316c-.117.338-.221.78-.221.78h-.026s-.117-.468-.247-.793l-1.651-4.303h-1.417l2.756 6.5-.325.754c-.247.598-.676.975-1.196.975-.39 0-.754-.286-.754-.286zm6.625-4.667c0 2.002 1.586 3.458 3.548 3.458 1.95 0 3.537-1.456 3.537-3.458 0-1.989-1.587-3.432-3.55-3.432-1.95 0-3.535 1.443-3.535 3.432zm1.287 0c0-1.365 1.014-2.34 2.261-2.34 1.236 0 2.263.975 2.263 2.34 0 1.378-1.028 2.366-2.263 2.366-1.247 0-2.261-.988-2.261-2.366zm7.24.936c0 1.742.766 2.522 2.248 2.522 1.287 0 2.158-.897 2.444-1.547h.026s-.052.221-.052.481V12h1.222V5.422h-1.248v3.081c0 1.3-.793 2.483-2.145 2.483-1.04 0-1.235-.728-1.235-1.638V5.422h-1.26v4.212zM78.635 12h1.261V9.27c0-1.274.598-2.678 2.015-2.678.13 0 .312.013.364.026V5.37a2.745 2.745 0 0 0-.338-.026c-1.014 0-1.78.793-2.093 1.742h-.026s.04-.208.04-.481V5.422h-1.223V12zm4.294-3.289c0 1.95 1.43 3.445 3.497 3.445.91 0 1.91-.351 2.548-.936l-.533-.923c-.52.468-1.235.767-1.937.767-1.183 0-2.197-.767-2.262-2.184h4.784c.026-.182.052-.364.052-.533 0-1.69-.988-3.081-2.847-3.081-1.872 0-3.302 1.352-3.302 3.445zm1.352-.741c.182-1.092.949-1.729 1.924-1.729.858 0 1.56.598 1.599 1.729h-3.523zM90.595 12h1.261V8.932c0-1.222.728-2.522 1.976-2.522 1.001 0 1.131.793 1.131 1.651V12h1.261V8.932c0-1.261.728-2.522 1.95-2.522.975 0 1.157.728 1.157 1.651V12h1.261V7.788c0-1.677-.676-2.522-2.17-2.522-1.067 0-1.977.728-2.34 1.495h-.027c-.22-.988-.858-1.495-1.963-1.495-1.04 0-1.976.78-2.288 1.547h-.026s.04-.221.04-.494v-.897h-1.223V12zm11.337-1.794c0 1.235 1.053 1.95 2.197 1.95.975 0 1.781-.585 2.158-1.339h.026s-.039.221-.039.52V12h1.183V7.84c0-1.664-.949-2.574-2.6-2.574-.923 0-1.924.338-2.457.78l.507.923c.533-.377 1.196-.637 1.846-.637.819 0 1.443.364 1.443 1.443v.13h-.338c-1.365 0-3.926.234-3.926 2.301zm1.261-.104c0-1.209 1.742-1.287 2.678-1.287h.325v.247c0 .975-.663 2.093-1.768 2.093-.819 0-1.235-.533-1.235-1.053zm6.114-6.006h1.3V2.822h-1.3v1.274zm.026 7.904h1.261V5.422h-1.261V12zm3.2-1.807c0 1.664 1.04 1.872 1.768 1.872.182 0 .325-.026.416-.039v-1.118c-.078.013-.169.013-.221.013-.39 0-.715-.156-.715-.936V2.822h-1.248v7.371zm3.218-1.326c0 2.652 2.054 4.758 4.953 4.758v-1.027c-2.21 0-3.692-1.677-3.692-3.731 0-2.015 1.534-3.77 3.549-3.77 1.339 0 2.093.598 2.106 1.339h-1.404c-1.638 0-2.691 1.144-2.691 2.444s1.066 2.444 2.691 2.444h3.549v-.949h-.936V6.696c0-1.378-.871-2.639-3.38-2.639-2.652 0-4.745 2.132-4.745 4.81zm4.095-.013c0-.845.637-1.547 1.534-1.547h1.287v3.068h-1.313c-.871 0-1.508-.676-1.508-1.521zM126.345 12h1.261V8.932c0-1.222.728-2.522 1.976-2.522 1.001 0 1.131.793 1.131 1.651V12h1.261V8.932c0-1.261.728-2.522 1.95-2.522.975 0 1.157.728 1.157 1.651V12h1.261V7.788c0-1.677-.676-2.522-2.171-2.522-1.066 0-1.976.728-2.34 1.495h-.026c-.221-.988-.858-1.495-1.963-1.495-1.04 0-1.976.78-2.288 1.547h-.026s.039-.221.039-.494v-.897h-1.222V12zm11.337-1.794c0 1.235 1.053 1.95 2.197 1.95.975 0 1.781-.585 2.158-1.339h.026s-.039.221-.039.52V12h1.183V7.84c0-1.664-.949-2.574-2.6-2.574-.923 0-1.924.338-2.457.78l.507.923c.533-.377 1.196-.637 1.846-.637.819 0 1.443.364 1.443 1.443v.13h-.338c-1.365 0-3.926.234-3.926 2.301zm1.261-.104c0-1.209 1.742-1.287 2.678-1.287h.325v.247c0 .975-.663 2.093-1.768 2.093-.819 0-1.235-.533-1.235-1.053zm6.114-6.006h1.3V2.822h-1.3v1.274zm.026 7.904h1.261V5.422h-1.261V12zm3.2-1.807c0 1.664 1.04 1.872 1.768 1.872.182 0 .325-.026.416-.039v-1.118c-.078.013-.169.013-.221.013-.39 0-.715-.156-.715-.936V2.822h-1.248v7.371zM151.748 12h1.183v-.533c0-.299-.039-.494-.039-.494h.026a2.41 2.41 0 0 0 2.093 1.183c1.742 0 2.99-1.352 2.99-3.445 0-2.041-1.105-3.445-2.886-3.445-.91 0-1.742.455-2.132 1.157h-.026s.052-.234.052-.559V2.822h-1.261V12zm1.222-3.263c0-1.664.91-2.366 1.898-2.366 1.092 0 1.859.923 1.859 2.353 0 1.495-.858 2.34-1.898 2.34-1.248 0-1.859-1.157-1.859-2.327zm6.157-.039c0 2.002 1.586 3.458 3.549 3.458 1.95 0 3.536-1.456 3.536-3.458 0-1.989-1.586-3.432-3.549-3.432-1.95 0-3.536 1.443-3.536 3.432zm1.287 0c0-1.365 1.014-2.34 2.262-2.34 1.235 0 2.262.975 2.262 2.34 0 1.378-1.027 2.366-2.262 2.366-1.248 0-2.262-.988-2.262-2.366zM166.762 12h1.43l1.378-2.197c.104-.156.195-.351.195-.351h.026s.104.195.208.351L171.377 12h1.43l-2.249-3.38 2.119-3.198h-1.443l-1.222 2.002c-.091.169-.221.39-.221.39h-.026l-.208-.39-1.222-2.002h-1.443l2.119 3.198-2.249 3.38zm7.176 0h1.352v-1.365h-1.352V12zm3.239 0h1.261V9.27c0-1.274.598-2.678 2.015-2.678.13 0 .312.013.364.026V5.37a2.745 2.745 0 0 0-.338-.026c-1.014 0-1.781.793-2.093 1.742h-.026s.039-.208.039-.481V5.422h-1.222V12zm4.81-2.366c0 1.742.767 2.522 2.249 2.522 1.287 0 2.158-.897 2.444-1.547h.026s-.052.221-.052.481V12h1.222V5.422h-1.248v3.081c0 1.3-.793 2.483-2.145 2.483-1.04 0-1.235-.728-1.235-1.638V5.422h-1.261v4.212z" fill="#000"/><g clip-path="url(#a)" fill="#FFD634"><path d="M46.99 5.008 43.484 8.5l3.505 3.49c.019-.242.01-6.868.001-6.982zM45.727 3.838H35.273c-.34 0-.653.134-.881.353L40.2 9.977a.424.424 0 0 0 .6 0l5.807-5.784a1.262 1.262 0 0 0-.88-.355zM34.01 5.008c-.01.117-.018 6.742.002 6.984l3.51-3.485-3.512-3.5z"/><path d="m42.883 9.098-1.485 1.479a1.27 1.27 0 0 1-1.797 0l-1.478-1.473-3.728 3.701c.228.22.537.356.878.356h10.454c.341 0 .65-.136.879-.356l-3.723-3.707z"/></g><defs><clipPath id="a"><path fill="#fff" transform="translate(34 2)" d="M0 0h13v13H0z"/></clipPath></defs></svg>