<svg width="189" height="72" fill="none" xmlns="http://www.w3.org/2000/svg"><path d="M24.062 63.436c0 2.304 2.016 3.78 4.284 3.78 2.466 0 4.194-1.674 4.194-3.654 0-1.314-.774-2.106-1.8-2.7.378-.36 1.638-1.746 1.638-3.456 0-1.944-1.53-3.276-3.87-3.276-2.556 0-3.834 1.548-3.834 3.24 0 1.17.648 1.944 1.53 2.52-.486.306-2.142 1.494-2.142 3.546zm5.652-3.078c-1.746-.81-3.78-1.332-3.78-3.006 0-1.134.936-2.07 2.556-2.07 1.53 0 2.628.828 2.628 2.214 0 1.44-1.098 2.556-1.404 2.862zm-4.356 2.988c0-1.638 1.422-2.61 1.854-2.88 1.836.882 4.05 1.386 4.05 3.114 0 1.458-1.44 2.484-2.934 2.484-1.494 0-2.97-1.08-2.97-2.718zm15.907 5.364h1.152a15.715 15.715 0 0 1-2.034-7.758c0-2.538.72-4.896 2.034-7.092h-1.152c-1.278 2.106-2.016 4.482-2.016 7.074 0 2.844.774 5.616 2.016 7.776zm2.317-5.22H49.9V67h1.242v-3.51h1.8v-1.08h-1.8v-8.064h-1.35l-6.21 8.334v.81zm1.494-1.08v-.036l4.23-5.508c.324-.45.63-.972.63-.972h.036s-.072.666-.072 1.206v5.31h-4.824zm10.235 4.284c.738.36 1.548.522 2.322.522 3.924 0 5.562-3.978 5.562-7.146 0-3.42-1.818-5.94-4.554-5.94-2.214 0-3.978 1.602-3.978 4.212 0 2.412 1.62 4.104 3.942 4.104 1.296 0 2.574-.576 3.204-1.476h.036c-.234 2.466-1.566 5.076-4.212 5.076-.72 0-1.44-.234-1.836-.45l-.486 1.098zm3.474-5.364c-1.728 0-2.862-1.188-2.862-2.988 0-1.746 1.008-3.024 2.736-3.024 1.89 0 3.204 2.16 3.204 3.852 0 1.026-1.368 2.16-3.078 2.16zm6.496 4.104c.846 1.134 2.25 1.782 3.708 1.782 2.466 0 4.392-1.818 4.392-4.158 0-2.268-1.818-4.122-4.356-4.122-.738 0-1.566.27-1.908.486h-.036s.054-.27.108-.72l.378-3.24h5.022v-1.116h-6.12l-.684 6.138.792.288c.63-.432 1.53-.702 2.304-.702 1.818 0 3.204 1.26 3.204 2.988s-1.404 2.952-3.15 2.952c-1.422 0-2.358-.756-2.844-1.458l-.81.882zm9.804 3.276h1.134c1.26-2.16 2.034-4.932 2.034-7.776 0-2.592-.738-4.968-2.034-7.074h-1.134c1.296 2.196 2.034 4.554 2.034 7.092 0 2.682-.684 5.328-2.034 7.758z" fill="#000"/><path d="M85.26 67h2.413l5.598-11.16v-1.62h-8.784v1.998h5.454c.648 0 .846-.036.846-.036v.036s-.324.378-.738 1.17L85.26 67zm14.038.216c3.492 0 4.626-2.952 4.626-6.624 0-3.672-1.134-6.588-4.626-6.588-3.492 0-4.644 2.916-4.644 6.588s1.153 6.624 4.645 6.624zm0-2.124c-1.746 0-2.25-1.98-2.25-4.5 0-2.484.504-4.446 2.25-4.446s2.25 1.962 2.25 4.446c0 2.52-.504 4.5-2.25 4.5zm11.303 2.124c3.492 0 4.626-2.952 4.626-6.624 0-3.672-1.134-6.588-4.626-6.588-3.492 0-4.644 2.916-4.644 6.588s1.152 6.624 4.644 6.624zm0-2.124c-1.746 0-2.25-1.98-2.25-4.5 0-2.484.504-4.446 2.25-4.446s2.25 1.962 2.25 4.446c0 2.52-.504 4.5-2.25 4.5zm6.839-2.232h5.4v-1.998h-5.4v1.998zm12.233 4.356c3.492 0 4.626-2.952 4.626-6.624 0-3.672-1.134-6.588-4.626-6.588-3.492 0-4.644 2.916-4.644 6.588s1.152 6.624 4.644 6.624zm0-2.124c-1.746 0-2.25-1.98-2.25-4.5 0-2.484.504-4.446 2.25-4.446s2.25 1.962 2.25 4.446c0 2.52-.504 4.5-2.25 4.5zm11.303 2.124c3.492 0 4.626-2.952 4.626-6.624 0-3.672-1.134-6.588-4.626-6.588-3.492 0-4.644 2.916-4.644 6.588s1.152 6.624 4.644 6.624zm0-2.124c-1.746 0-2.25-1.98-2.25-4.5 0-2.484.504-4.446 2.25-4.446s2.25 1.962 2.25 4.446c0 2.52-.504 4.5-2.25 4.5zm6.839-2.232h5.4v-1.998h-5.4v1.998zm12.233 4.356c3.492 0 4.626-2.952 4.626-6.624 0-3.672-1.134-6.588-4.626-6.588-3.492 0-4.644 2.916-4.644 6.588s1.152 6.624 4.644 6.624zm0-2.124c-1.746 0-2.25-1.98-2.25-4.5 0-2.484.504-4.446 2.25-4.446s2.25 1.962 2.25 4.446c0 2.52-.504 4.5-2.25 4.5zm11.303 2.124c3.492 0 4.626-2.952 4.626-6.624 0-3.672-1.134-6.588-4.626-6.588-3.492 0-4.644 2.916-4.644 6.588s1.152 6.624 4.644 6.624zm0-2.124c-1.746 0-2.25-1.98-2.25-4.5 0-2.484.504-4.446 2.25-4.446s2.25 1.962 2.25 4.446c0 2.52-.504 4.5-2.25 4.5z" fill="#2B150D"/><path d="M24.062 37.436c0 2.304 2.016 3.78 4.284 3.78 2.466 0 4.194-1.674 4.194-3.654 0-1.314-.774-2.106-1.8-2.7.378-.36 1.638-1.746 1.638-3.456 0-1.944-1.53-3.276-3.87-3.276-2.556 0-3.834 1.548-3.834 3.24 0 1.17.648 1.944 1.53 2.52-.486.306-2.142 1.494-2.142 3.546zm5.652-3.078c-1.746-.81-3.78-1.332-3.78-3.006 0-1.134.936-2.07 2.556-2.07 1.53 0 2.628.828 2.628 2.214 0 1.44-1.098 2.556-1.404 2.862zm-4.356 2.988c0-1.638 1.422-2.61 1.854-2.88 1.836.882 4.05 1.386 4.05 3.114 0 1.458-1.44 2.484-2.934 2.484-1.494 0-2.97-1.08-2.97-2.718zm15.907 5.364h1.152a15.715 15.715 0 0 1-2.034-7.758c0-2.538.72-4.896 2.034-7.092h-1.152c-1.278 2.106-2.016 4.482-2.016 7.074 0 2.844.774 5.616 2.016 7.776zm2.819-5.274c0 2.304 2.015 3.78 4.283 3.78 2.467 0 4.195-1.674 4.195-3.654 0-1.314-.774-2.106-1.8-2.7.377-.36 1.638-1.746 1.638-3.456 0-1.944-1.53-3.276-3.87-3.276-2.556 0-3.834 1.548-3.834 3.24 0 1.17.648 1.944 1.53 2.52-.486.306-2.142 1.494-2.142 3.546zm5.651-3.078c-1.745-.81-3.78-1.332-3.78-3.006 0-1.134.937-2.07 2.556-2.07 1.53 0 2.628.828 2.628 2.214 0 1.44-1.098 2.556-1.404 2.862zm-4.355 2.988c0-1.638 1.421-2.61 1.853-2.88 1.837.882 4.05 1.386 4.05 3.114 0 1.458-1.44 2.484-2.934 2.484-1.493 0-2.97-1.08-2.97-2.718zm13.89 3.87c3.295 0 4.375-2.898 4.375-6.552 0-3.636-1.08-6.534-4.374-6.534-3.276 0-4.356 2.898-4.356 6.534 0 3.654 1.08 6.552 4.356 6.552zm0-1.17c-2.393 0-3.06-2.34-3.06-5.382 0-3.006.667-5.346 3.06-5.346 2.413 0 3.079 2.34 3.079 5.346 0 3.042-.666 5.382-3.078 5.382zm11.11 1.17c3.294 0 4.374-2.898 4.374-6.552 0-3.636-1.08-6.534-4.374-6.534-3.276 0-4.356 2.898-4.356 6.534 0 3.654 1.08 6.552 4.356 6.552zm0-1.17c-2.394 0-3.06-2.34-3.06-5.382 0-3.006.666-5.346 3.06-5.346 2.412 0 3.078 2.34 3.078 5.346 0 3.042-.666 5.382-3.078 5.382zm6.129 2.664h1.134c1.26-2.16 2.034-4.932 2.034-7.776 0-2.592-.738-4.968-2.034-7.074h-1.134c1.296 2.196 2.034 4.554 2.034 7.092 0 2.682-.684 5.328-2.034 7.758z" fill="#000"/><path d="M86.127 37.31c0 2.16 1.8 3.906 4.554 3.906 2.862 0 4.518-1.836 4.518-3.798 0-1.314-.702-2.106-1.638-2.7.36-.396 1.422-1.71 1.422-3.186 0-2.196-1.764-3.528-4.14-3.528-2.808 0-4.104 1.71-4.104 3.51 0 1.116.558 1.89 1.332 2.484-.504.36-1.944 1.53-1.944 3.312zm5.706-3.456c-1.404-.612-2.808-1.098-2.808-2.304 0-.828.612-1.476 1.764-1.476 1.152 0 1.926.63 1.926 1.638 0 1.044-.648 1.854-.882 2.142zm-3.33 3.276c0-1.116.846-1.854 1.206-2.16 1.512.72 3.132 1.188 3.132 2.358 0 1.116-.972 1.836-2.16 1.836-1.152 0-2.178-.846-2.178-2.034zm13.362 4.086c3.492 0 4.626-2.952 4.626-6.624 0-3.672-1.134-6.588-4.626-6.588-3.492 0-4.644 2.916-4.644 6.588s1.152 6.624 4.644 6.624zm0-2.124c-1.746 0-2.25-1.98-2.25-4.5 0-2.484.504-4.446 2.25-4.446s2.25 1.962 2.25 4.446c0 2.52-.504 4.5-2.25 4.5zm11.303 2.124c3.492 0 4.626-2.952 4.626-6.624 0-3.672-1.134-6.588-4.626-6.588-3.492 0-4.644 2.916-4.644 6.588s1.152 6.624 4.644 6.624zm0-2.124c-1.746 0-2.25-1.98-2.25-4.5 0-2.484.504-4.446 2.25-4.446s2.25 1.962 2.25 4.446c0 2.52-.504 4.5-2.25 4.5zm6.838-2.232h5.4v-1.998h-5.4v1.998zm12.234 4.356c3.492 0 4.626-2.952 4.626-6.624 0-3.672-1.134-6.588-4.626-6.588-3.492 0-4.644 2.916-4.644 6.588s1.152 6.624 4.644 6.624zm0-2.124c-1.746 0-2.25-1.98-2.25-4.5 0-2.484.504-4.446 2.25-4.446s2.25 1.962 2.25 4.446c0 2.52-.504 4.5-2.25 4.5zm11.303 2.124c3.492 0 4.626-2.952 4.626-6.624 0-3.672-1.134-6.588-4.626-6.588-3.492 0-4.644 2.916-4.644 6.588s1.152 6.624 4.644 6.624zm0-2.124c-1.746 0-2.25-1.98-2.25-4.5 0-2.484.504-4.446 2.25-4.446s2.25 1.962 2.25 4.446c0 2.52-.504 4.5-2.25 4.5zm6.838-2.232h5.4v-1.998h-5.4v1.998zm12.234 4.356c3.492 0 4.626-2.952 4.626-6.624 0-3.672-1.134-6.588-4.626-6.588-3.492 0-4.644 2.916-4.644 6.588s1.152 6.624 4.644 6.624zm0-2.124c-1.746 0-2.25-1.98-2.25-4.5 0-2.484.504-4.446 2.25-4.446s2.25 1.962 2.25 4.446c0 2.52-.504 4.5-2.25 4.5zm11.303 2.124c3.492 0 4.626-2.952 4.626-6.624 0-3.672-1.134-6.588-4.626-6.588-3.492 0-4.644 2.916-4.644 6.588s1.152 6.624 4.644 6.624zm0-2.124c-1.746 0-2.25-1.98-2.25-4.5 0-2.484.504-4.446 2.25-4.446s2.25 1.962 2.25 4.446c0 2.52-.504 4.5-2.25 4.5z" fill="#2B150D"/><path d="M24.209 12h5.564v-1.118h-4.277V7.931h3.289V6.813h-3.289V3.94h4.056V2.822h-5.343V12zm6.35 0h1.404l1.729-2.808h.936V12h1.196V9.192h.949L38.489 12h1.417l-2.12-3.38v-.026l1.925-3.172h-1.326L36.76 8.113h-.936V5.422h-1.196v2.691h-.936L32.08 5.422h-1.34l1.938 3.172v.026L30.558 12zm9.897-3.289c0 1.95 1.43 3.445 3.497 3.445.91 0 1.911-.351 2.548-.936l-.533-.923c-.52.468-1.235.767-1.937.767-1.183 0-2.197-.767-2.262-2.184h4.784c.026-.182.052-.364.052-.533 0-1.69-.988-3.081-2.847-3.081-1.872 0-3.302 1.352-3.302 3.445zm1.352-.741c.182-1.092.95-1.729 1.924-1.729.858 0 1.56.598 1.6 1.729h-3.524zm7.6 2.99c.832-1.3.936-3.172.936-4.16v-.351h1.977v4.511h-2.913zm-2.105 0v2.6h1.183V12h4.875v1.56h1.157v-2.6h-.937V5.422h-4.446v1.209c0 1.014-.103 3.068-1.026 4.329h-.806zM55.84 12h1.261V9.179h3.328V12h1.261V5.422h-1.26V8.1H57.1V5.422h-1.26V12zm7.366-3.289c0 1.95 1.43 3.445 3.497 3.445.91 0 1.911-.351 2.548-.936l-.533-.923c-.52.468-1.235.767-1.937.767-1.183 0-2.197-.767-2.262-2.184h4.784c.026-.182.052-.364.052-.533 0-1.69-.988-3.081-2.847-3.081-1.872 0-3.302 1.352-3.302 3.445zm1.352-.741c.182-1.092.95-1.729 1.924-1.729.858 0 1.56.598 1.6 1.729h-3.524zM70.871 12h2.809c1.43 0 2.417-.65 2.417-1.872 0-.728-.428-1.365-1.247-1.56v-.013c.598-.26.936-.806.936-1.443 0-1.105-.871-1.69-2.198-1.69h-2.716V12zm1.261-3.796V6.293h1.197c.793 0 1.17.312 1.17.91 0 .611-.377 1.001-1.131 1.001h-1.236zm0 2.912V9.049h1.34c.87 0 1.352.39 1.352 1.04 0 .611-.43 1.027-1.34 1.027h-1.352zm5.493.884h1.261V9.179h3.328V12h1.261V5.422h-1.26V8.1h-3.329V5.422h-1.26V12zm7.366-3.302c0 2.002 1.586 3.458 3.55 3.458 1.95 0 3.535-1.456 3.535-3.458 0-1.989-1.586-3.432-3.549-3.432-1.95 0-3.536 1.443-3.536 3.432zm1.287 0c0-1.365 1.014-2.34 2.262-2.34 1.235 0 2.262.975 2.262 2.34 0 1.378-1.027 2.366-2.262 2.366-1.248 0-2.262-.988-2.262-2.366zm10.14.013c0 1.976 1.442 3.445 3.522 3.445 1.027 0 2.028-.416 2.626-1.053l-.507-.923c-.507.533-1.3.884-2.028.884-1.365 0-2.327-1.027-2.327-2.366 0-1.339.962-2.34 2.288-2.34.689 0 1.378.312 1.82.754l.598-.884c-.624-.663-1.599-.962-2.47-.962-2.067 0-3.523 1.495-3.523 3.445zm10.879 3.068c.559.273 1.196.377 1.781.377 2.847 0 4.134-2.808 4.134-5.161 0-2.626-1.469-4.329-3.432-4.329-1.716 0-2.951 1.261-2.951 3.068 0 1.703 1.157 3.016 2.899 3.016.806 0 1.651-.338 2.028-.858h.026c-.195 1.521-1.066 3.081-2.756 3.081a3.15 3.15 0 0 1-1.313-.312l-.416 1.118zm2.691-4.108c-1.17 0-1.872-.819-1.872-1.937 0-1.079.624-1.885 1.677-1.885 1.17 0 2.08 1.339 2.08 2.535 0 .65-.845 1.287-1.885 1.287zm4.884-.91h1.326V5.422h-1.326v1.339zm0 5.239h1.326v-1.339h-1.326V12zm6.281.156c2.457 0 3.25-2.106 3.25-4.758 0-2.639-.793-4.732-3.25-4.732-2.444 0-3.25 2.093-3.25 4.732 0 2.652.806 4.758 3.25 4.758zm0-1.183c-1.495 0-1.924-1.56-1.924-3.575 0-1.989.429-3.549 1.924-3.549 1.508 0 1.924 1.56 1.924 3.549 0 2.015-.416 3.575-1.924 3.575zm8.087 1.183c2.457 0 3.25-2.106 3.25-4.758 0-2.639-.793-4.732-3.25-4.732-2.444 0-3.25 2.093-3.25 4.732 0 2.652.806 4.758 3.25 4.758zm0-1.183c-1.495 0-1.924-1.56-1.924-3.575 0-1.989.429-3.549 1.924-3.549 1.508 0 1.924 1.56 1.924 3.549 0 2.015-.416 3.575-1.924 3.575zm9.556-.013c.832-1.3.936-3.172.936-4.16v-.351h1.976v4.511h-2.912zm-2.106 0v2.6h1.183V12h4.875v1.56h1.157v-2.6h-.936V5.422h-4.446v1.209c0 1.014-.104 3.068-1.027 4.329h-.806zm8.033-2.262c0 2.002 1.586 3.458 3.549 3.458 1.95 0 3.536-1.456 3.536-3.458 0-1.989-1.586-3.432-3.549-3.432-1.95 0-3.536 1.443-3.536 3.432zm1.287 0c0-1.365 1.014-2.34 2.262-2.34 1.235 0 2.262.975 2.262 2.34 0 1.378-1.027 2.366-2.262 2.366-1.248 0-2.262-.988-2.262-2.366zM156.383 12h5.915v-1.118h-4.576c.052-2.093 4.433-2.561 4.433-5.577 0-1.586-1.209-2.639-2.886-2.639-1.352 0-2.392.78-2.912 1.742l.949.637c.39-.663 1.092-1.17 1.859-1.17.975 0 1.664.624 1.664 1.521 0 2.158-4.511 2.639-4.511 5.902 0 .221.026.455.065.702zm7.413 0h5.291v-1.118h-2.015v-8.06h-1.144l-2.197 2.132.78.806.858-.832c.338-.338.442-.533.442-.533h.026s-.013.273-.013.559v5.928h-2.028V12zm6.593-5.239h1.326V5.422h-1.326v1.339zm0 5.239h1.326v-1.339h-1.326V12zm6.281.156c2.457 0 3.25-2.106 3.25-4.758 0-2.639-.793-4.732-3.25-4.732-2.444 0-3.25 2.093-3.25 4.732 0 2.652.806 4.758 3.25 4.758zm0-1.183c-1.495 0-1.924-1.56-1.924-3.575 0-1.989.429-3.549 1.924-3.549 1.508 0 1.924 1.56 1.924 3.549 0 2.015-.416 3.575-1.924 3.575zm8.087 1.183c2.457 0 3.25-2.106 3.25-4.758 0-2.639-.793-4.732-3.25-4.732-2.444 0-3.25 2.093-3.25 4.732 0 2.652.806 4.758 3.25 4.758zm0-1.183c-1.495 0-1.924-1.56-1.924-3.575 0-1.989.429-3.549 1.924-3.549 1.508 0 1.924 1.56 1.924 3.549 0 2.015-.416 3.575-1.924 3.575z" fill="#000"/><g clip-path="url(#a)" fill="#FFD634"><path d="M10.172 9.824 8.081 8.256V5.06a.58.58 0 1 0-1.162 0v3.486a.58.58 0 0 0 .232.465l2.324 1.743a.577.577 0 0 0 .813-.117.58.58 0 0 0-.116-.813z"/><path d="M7.5 1C3.364 1 0 4.364 0 8.5S3.364 16 7.5 16 15 12.636 15 8.5 11.636 1 7.5 1zm0 13.838A6.346 6.346 0 0 1 1.162 8.5 6.346 6.346 0 0 1 7.5 2.162 6.345 6.345 0 0 1 13.838 8.5 6.346 6.346 0 0 1 7.5 14.838z"/></g><defs><clipPath id="a"><path fill="#fff" transform="translate(0 1)" d="M0 0h15v15H0z"/></clipPath></defs></svg>