<svg width="191" height="76" fill="none" xmlns="http://www.w3.org/2000/svg"><path d="M10.168 66.838v1.274c2.73-.154 3.57-2.898 3.57-7.644V59.32h3.066V68h1.386v-9.884h-5.768v2.338c0 4.018-.588 6.16-2.254 6.384zm9.772-2.394c0 2.156 1.708 3.724 3.822 3.724 2.1 0 3.808-1.568 3.808-3.724 0-2.142-1.708-3.696-3.822-3.696-2.1 0-3.808 1.554-3.808 3.696zm1.386 0c0-1.47 1.092-2.52 2.436-2.52 1.33 0 2.436 1.05 2.436 2.52 0 1.484-1.106 2.548-2.436 2.548-1.344 0-2.436-1.064-2.436-2.548zM29.206 68h1.358v-5.922h3.08v-1.162h-4.438V68zm5.062-3.556c0 2.156 1.708 3.724 3.822 3.724 2.1 0 3.808-1.568 3.808-3.724 0-2.142-1.708-3.696-3.822-3.696-2.1 0-3.808 1.554-3.808 3.696zm1.386 0c0-1.47 1.092-2.52 2.436-2.52 1.33 0 2.436 1.05 2.436 2.52 0 1.484-1.106 2.548-2.436 2.548-1.344 0-2.436-1.064-2.436-2.548zM45.01 68h1.344v-5.922h2.478v-1.162h-6.286v1.162h2.464V68zm5.155 0h1.302l3.066-4.228c.224-.336.574-.812.616-.938h.028c0 .112-.042.602-.042.938V68h1.316v-7.084h-1.316l-3.052 4.228c-.238.336-.574.826-.63.952h-.028c.014-.07.042-.574.042-.952v-4.228h-1.302V68zm8.367 0h1.358v-5.922h3.472V68h1.358v-7.084h-6.188V68zm11.786 0h3.024c1.54 0 2.604-.7 2.604-2.016 0-.784-.462-1.47-1.344-1.68v-.014c.644-.28 1.008-.868 1.008-1.554 0-1.19-.938-1.82-2.366-1.82h-2.926V68zm1.358-4.088v-2.058h1.288c.854 0 1.26.336 1.26.98 0 .658-.406 1.078-1.218 1.078h-1.33zm0 3.136v-2.226h1.442c.938 0 1.456.42 1.456 1.12 0 .658-.462 1.106-1.442 1.106h-1.456zm5.327-.98c0 1.33 1.134 2.1 2.366 2.1 1.05 0 1.918-.63 2.324-1.442h.028s-.042.238-.042.56V68h1.274v-4.48c0-1.792-1.022-2.772-2.8-2.772-.994 0-2.072.364-2.646.84l.546.994c.574-.406 1.288-.686 1.988-.686.882 0 1.554.392 1.554 1.554v.14h-.364c-1.47 0-4.228.252-4.228 2.478zm1.358-.112c0-1.302 1.876-1.386 2.884-1.386h.35v.266c0 1.05-.714 2.254-1.904 2.254-.882 0-1.33-.574-1.33-1.134zm6.6 2.044h9.155v-7.084h-1.302v5.908h-2.618v-5.908H88.88v5.908h-2.618v-5.908H84.96V68zm10.79-3.542c0 2.1 1.54 3.71 3.765 3.71.98 0 2.058-.378 2.744-1.008l-.574-.994c-.56.504-1.33.826-2.086.826-1.274 0-2.366-.826-2.436-2.352h5.152c.028-.196.056-.392.056-.574 0-1.82-1.064-3.318-3.066-3.318-2.016 0-3.556 1.456-3.556 3.71zm1.455-.798c.196-1.176 1.022-1.862 2.072-1.862.924 0 1.68.644 1.722 1.862h-3.794zm6.799 4.34h1.358v-5.922h3.08v-1.162h-4.438V68zm5.062-3.556c0 2.156 1.708 3.724 3.822 3.724 2.1 0 3.808-1.568 3.808-3.724 0-2.142-1.708-3.696-3.822-3.696-2.1 0-3.808 1.554-3.808 3.696zm1.386 0c0-1.47 1.092-2.52 2.436-2.52 1.33 0 2.436 1.05 2.436 2.52 0 1.484-1.106 2.548-2.436 2.548-1.344 0-2.436-1.064-2.436-2.548zM121.539 68h1.316l.308-4.214c.028-.42-.014-1.218-.014-1.218h.028s.224.532.448 1.05l1.68 3.528h1.162l1.68-3.542c.266-.546.448-1.036.448-1.036h.028s-.028.798-.014 1.218l.308 4.214h1.316l-.616-7.084h-1.484l-1.848 4.004c-.182.434-.392.952-.392.952h-.028s-.196-.532-.392-.952l-1.806-4.004h-1.512L121.539 68zm9.933-1.932c0 1.33 1.134 2.1 2.366 2.1 1.05 0 1.918-.63 2.324-1.442h.028s-.042.238-.042.56V68h1.274v-4.48c0-1.792-1.022-2.772-2.8-2.772-.994 0-2.072.364-2.646.84l.546.994c.574-.406 1.288-.686 1.988-.686.882 0 1.554.392 1.554 1.554v.14h-.364c-1.47 0-4.228.252-4.228 2.478zm1.358-.112c0-1.302 1.876-1.386 2.884-1.386h.35v.266c0 1.05-.714 2.254-1.904 2.254-.882 0-1.33-.574-1.33-1.134zM139.429 68h1.358v-5.922h3.08v-1.162h-4.438V68zm5.113-1.932c0 1.33 1.134 2.1 2.366 2.1 1.05 0 1.918-.63 2.324-1.442h.028s-.042.238-.042.56V68h1.274v-4.48c0-1.792-1.022-2.772-2.8-2.772-.994 0-2.072.364-2.646.84l.546.994c.574-.406 1.288-.686 1.988-.686.882 0 1.554.392 1.554 1.554v.14h-.364c-1.47 0-4.228.252-4.228 2.478zm1.358-.112c0-1.302 1.876-1.386 2.884-1.386h.35v.266c0 1.05-.714 2.254-1.904 2.254-.882 0-1.33-.574-1.33-1.134zm5.913 1.176a3.82 3.82 0 0 0 2.604 1.036c1.456 0 2.716-.742 2.716-2.198 0-.91-.56-1.442-1.274-1.666v-.028c.56-.238 1.036-.728 1.036-1.61 0-1.26-1.05-1.918-2.394-1.918-1.12 0-1.918.364-2.464.77l.504.91c.546-.406 1.106-.616 1.722-.616.784 0 1.26.364 1.26 1.022 0 .714-.546 1.022-1.344 1.022h-.742v.98h.868c.994 0 1.456.392 1.456 1.078 0 .77-.658 1.162-1.47 1.162-.854 0-1.526-.504-1.848-.84l-.63.896zm6.962.868h1.302l3.066-4.228c.224-.336.574-.812.616-.938h.028c0 .112-.042.602-.042.938V68h1.316v-7.084h-1.316l-3.052 4.228c-.238.336-.574.826-.63.952h-.028c.014-.07.042-.574.042-.952v-4.228h-1.302V68zm8.367 0h1.358v-3.038h3.584V68h1.358v-7.084h-1.358V63.8H168.5v-2.884h-1.358V68zm7.806-1.932c0 1.33 1.134 2.1 2.366 2.1 1.05 0 1.918-.63 2.324-1.442h.028s-.042.238-.042.56V68h1.274v-4.48c0-1.792-1.022-2.772-2.8-2.772-.994 0-2.072.364-2.646.84l.546.994c.574-.406 1.288-.686 1.988-.686.882 0 1.554.392 1.554 1.554v.14h-.364c-1.47 0-4.228.252-4.228 2.478zm1.358-.112c0-1.302 1.876-1.386 2.884-1.386h.35v.266c0 1.05-.714 2.254-1.904 2.254-.882 0-1.33-.574-1.33-1.134z" fill="#000"/><rect x="34" y="14" width="34" height="32" rx="9" fill="#FF7A1B"/><rect x="79" y="14" width="34" height="32" rx="9" fill="#2B150D"/><rect x="124" y="14" width="34" height="32" rx="9" fill="#FFD634"/></svg>