<svg width="155" height="16" fill="none" xmlns="http://www.w3.org/2000/svg"><path d="m21.65 13.365-.442.962s.533.403 1.261.403c.923 0 1.742-.52 2.132-1.547l3.094-7.761H26.33l-1.599 4.316c-.117.338-.221.78-.221.78h-.026s-.117-.468-.247-.793l-1.651-4.303h-1.417l2.756 6.5-.325.754c-.247.598-.676.975-1.196.975-.39 0-.754-.286-.754-.286zm6.625-4.667c0 2.002 1.585 3.458 3.549 3.458 1.95 0 3.535-1.456 3.535-3.458 0-1.989-1.586-3.432-3.549-3.432-1.95 0-3.535 1.443-3.535 3.432zm1.287 0c0-1.365 1.014-2.34 2.261-2.34 1.236 0 2.263.975 2.263 2.34 0 1.378-1.027 2.366-2.262 2.366-1.248 0-2.263-.988-2.263-2.366zm7.24.936c0 1.742.766 2.522 2.248 2.522 1.287 0 2.158-.897 2.444-1.547h.026s-.052.221-.052.481V12h1.222V5.422h-1.248v3.081c0 1.3-.793 2.483-2.145 2.483-1.04 0-1.235-.728-1.235-1.638V5.422h-1.26v4.212zM44.635 12h1.261V9.27c0-1.274.598-2.678 2.015-2.678.13 0 .312.013.364.026V5.37a2.745 2.745 0 0 0-.338-.026c-1.014 0-1.78.793-2.093 1.742h-.026s.04-.208.04-.481V5.422h-1.223V12zm4.294-3.289c0 1.95 1.43 3.445 3.497 3.445.91 0 1.91-.351 2.548-.936l-.533-.923c-.52.468-1.235.767-1.937.767-1.183 0-2.197-.767-2.262-2.184h4.784c.026-.182.052-.364.052-.533 0-1.69-.988-3.081-2.847-3.081-1.872 0-3.302 1.352-3.302 3.445zm1.352-.741c.182-1.092.949-1.729 1.924-1.729.858 0 1.56.598 1.599 1.729h-3.523zM56.595 12h1.261V8.932c0-1.222.728-2.522 1.976-2.522 1.001 0 1.131.793 1.131 1.651V12h1.261V8.932c0-1.261.728-2.522 1.95-2.522.975 0 1.157.728 1.157 1.651V12h1.261V7.788c0-1.677-.676-2.522-2.17-2.522-1.067 0-1.977.728-2.34 1.495h-.027c-.22-.988-.858-1.495-1.963-1.495-1.04 0-1.976.78-2.288 1.547h-.026s.04-.221.04-.494v-.897h-1.223V12zm11.337-1.794c0 1.235 1.053 1.95 2.197 1.95.975 0 1.78-.585 2.158-1.339h.026s-.04.221-.04.52V12h1.184V7.84c0-1.664-.95-2.574-2.6-2.574-.923 0-1.924.338-2.457.78l.507.923c.533-.377 1.196-.637 1.846-.637.819 0 1.443.364 1.443 1.443v.13h-.338c-1.365 0-3.926.234-3.926 2.301zm1.26-.104c0-1.209 1.743-1.287 2.679-1.287h.325v.247c0 .975-.663 2.093-1.768 2.093-.82 0-1.235-.533-1.235-1.053zm6.115-6.006h1.3V2.822h-1.3v1.274zM75.333 12h1.261V5.422h-1.26V12zm3.2-1.807c0 1.664 1.04 1.872 1.768 1.872.182 0 .325-.026.416-.039v-1.118c-.078.013-.17.013-.221.013-.39 0-.715-.156-.715-.936V2.822h-1.248v7.371zm3.218-1.326c0 2.652 2.054 4.758 4.953 4.758v-1.027c-2.21 0-3.692-1.677-3.692-3.731 0-2.015 1.534-3.77 3.55-3.77 1.338 0 2.092.598 2.105 1.339h-1.404c-1.638 0-2.69 1.144-2.69 2.444s1.065 2.444 2.69 2.444h3.55v-.949h-.937V6.696c0-1.378-.87-2.639-3.38-2.639-2.652 0-4.745 2.132-4.745 4.81zm4.095-.013c0-.845.637-1.547 1.534-1.547h1.287v3.068h-1.313c-.87 0-1.508-.676-1.508-1.521zm6.5 3.146h1.26V8.932c0-1.222.728-2.522 1.976-2.522 1.001 0 1.131.793 1.131 1.651V12h1.261V8.932c0-1.261.728-2.522 1.95-2.522.975 0 1.157.728 1.157 1.651V12h1.261V7.788c0-1.677-.676-2.522-2.171-2.522-1.066 0-1.976.728-2.34 1.495h-.026c-.22-.988-.858-1.495-1.963-1.495-1.04 0-1.976.78-2.288 1.547h-.026s.04-.221.04-.494v-.897h-1.223V12zm11.336-1.794c0 1.235 1.053 1.95 2.197 1.95.975 0 1.781-.585 2.158-1.339h.026s-.039.221-.039.52V12h1.183V7.84c0-1.664-.949-2.574-2.6-2.574-.923 0-1.924.338-2.457.78l.507.923c.533-.377 1.196-.637 1.846-.637.819 0 1.443.364 1.443 1.443v.13h-.338c-1.365 0-3.926.234-3.926 2.301zm1.261-.104c0-1.209 1.742-1.287 2.678-1.287h.325v.247c0 .975-.663 2.093-1.768 2.093-.819 0-1.235-.533-1.235-1.053zm6.114-6.006h1.3V2.822h-1.3v1.274zm.026 7.904h1.261V5.422h-1.261V12zm3.2-1.807c0 1.664 1.04 1.872 1.768 1.872.182 0 .325-.026.416-.039v-1.118c-.078.013-.169.013-.221.013-.39 0-.715-.156-.715-.936V2.822h-1.248v7.371zM117.748 12h1.183v-.533c0-.299-.039-.494-.039-.494h.026a2.41 2.41 0 0 0 2.093 1.183c1.742 0 2.99-1.352 2.99-3.445 0-2.041-1.105-3.445-2.886-3.445-.91 0-1.742.455-2.132 1.157h-.026s.052-.234.052-.559V2.822h-1.261V12zm1.222-3.263c0-1.664.91-2.366 1.898-2.366 1.092 0 1.859.923 1.859 2.353 0 1.495-.858 2.34-1.898 2.34-1.248 0-1.859-1.157-1.859-2.327zm6.157-.039c0 2.002 1.586 3.458 3.549 3.458 1.95 0 3.536-1.456 3.536-3.458 0-1.989-1.586-3.432-3.549-3.432-1.95 0-3.536 1.443-3.536 3.432zm1.287 0c0-1.365 1.014-2.34 2.262-2.34 1.235 0 2.262.975 2.262 2.34 0 1.378-1.027 2.366-2.262 2.366-1.248 0-2.262-.988-2.262-2.366zM132.762 12h1.43l1.378-2.197c.104-.156.195-.351.195-.351h.026s.104.195.208.351L137.377 12h1.43l-2.249-3.38 2.119-3.198h-1.443l-1.222 2.002c-.091.169-.221.39-.221.39h-.026l-.208-.39-1.222-2.002h-1.443l2.119 3.198-2.249 3.38zm7.176 0h1.352v-1.365h-1.352V12zm3.239 0h1.261V9.27c0-1.274.598-2.678 2.015-2.678.13 0 .312.013.364.026V5.37a2.745 2.745 0 0 0-.338-.026c-1.014 0-1.781.793-2.093 1.742h-.026s.039-.208.039-.481V5.422h-1.222V12zm4.81-2.366c0 1.742.767 2.522 2.249 2.522 1.287 0 2.158-.897 2.444-1.547h.026s-.052.221-.052.481V12h1.222V5.422h-1.248v3.081c0 1.3-.793 2.483-2.145 2.483-1.04 0-1.235-.728-1.235-1.638V5.422h-1.261v4.212z" fill="#000"/><g clip-path="url(#a)" fill="#FFD634"><path d="M12.99 5.008 9.484 8.5l3.505 3.49c.019-.242.01-6.868.001-6.982zM11.727 3.838H1.273c-.34 0-.653.134-.881.353L6.2 9.977a.424.424 0 0 0 .6 0l5.807-5.784a1.262 1.262 0 0 0-.88-.355zM.01 5.008c-.01.117-.018 6.742.002 6.984l3.51-3.485-3.512-3.5z"/><path d="m8.883 9.098-1.485 1.479a1.27 1.27 0 0 1-1.797 0L4.123 9.103.395 12.805c.228.22.537.356.878.356h10.454c.341 0 .65-.136.879-.356L8.883 9.098z"/></g><defs><clipPath id="a"><path fill="#fff" transform="translate(0 2)" d="M0 0h13v13H0z"/></clipPath></defs></svg>